<?xml version="1.0" encoding="UTF-8" standalone="no"?>
<svg
   xmlns:dc="http://purl.org/dc/elements/1.1/"
   xmlns:cc="http://creativecommons.org/ns#"
   xmlns:rdf="http://www.w3.org/1999/02/22-rdf-syntax-ns#"
   xmlns:svg="http://www.w3.org/2000/svg"
   xmlns="http://www.w3.org/2000/svg"
   xmlns:xlink="http://www.w3.org/1999/xlink"
   xmlns:sodipodi="http://sodipodi.sourceforge.net/DTD/sodipodi-0.dtd"
   xmlns:inkscape="http://www.inkscape.org/namespaces/inkscape"
   style="font-style:normal;font-weight:normal;font-size:12px;font-family:Dialog;color-interpolation:auto;fill:#000000;fill-opacity:1;stroke:#000000;stroke-width:1;stroke-linecap:square;stroke-linejoin:miter;stroke-miterlimit:10;stroke-dasharray:none;stroke-dashoffset:0;stroke-opacity:1;color-rendering:auto;image-rendering:auto;shape-rendering:auto;text-rendering:auto"
   width="12.008629cm"
   height="5.9824276cm"
   id="svg2"
   version="1.1"
   inkscape:version="0.91 r13725"
   sodipodi:docname="trajClassique.svg">
  <metadata
     id="metadata251">
    <rdf:RDF>
      <cc:Work
         rdf:about="">
        <dc:format>image/svg+xml</dc:format>
        <dc:type
           rdf:resource="http://purl.org/dc/dcmitype/StillImage" />
        <dc:title></dc:title>
      </cc:Work>
    </rdf:RDF>
  </metadata>
  <sodipodi:namedview
     pagecolor="#ffffff"
     bordercolor="#666666"
     borderopacity="1"
     objecttolerance="10"
     gridtolerance="10"
     guidetolerance="10"
     inkscape:pageopacity="0"
     inkscape:pageshadow="2"
     inkscape:window-width="1536"
     inkscape:window-height="803"
     id="namedview249"
     showgrid="false"
     units="cm"
     inkscape:zoom="2.0424342"
     inkscape:cx="222.99994"
     inkscape:cy="149.92622"
     inkscape:window-x="-8"
     inkscape:window-y="-8"
     inkscape:window-maximized="1"
     inkscape:current-layer="svg2"
     fit-margin-top="0"
     fit-margin-left="0"
     fit-margin-right="0"
     fit-margin-bottom="0" />
  <!--Generated by the Batik Graphics2D SVG Generator-->
  <line
     y2="211.22578"
     style="color-interpolation:linearRGB;fill:none;stroke:#262626;stroke-width:1.5;stroke-miterlimit:10;stroke-dasharray:none;marker-start:url(#marker6179);color-rendering:optimizeQuality;image-rendering:optimizeQuality;text-rendering:geometricPrecision"
     x1="283.91376"
     x2="283.91376"
     y1="6.5944977"
     id="line87" />
  <defs
     id="genericDefs">
    <marker
       inkscape:isstock="true"
       style="overflow:visible"
       id="marker6179"
       refX="0"
       refY="0"
       orient="auto"
       inkscape:stockid="Arrow1Mstart">
      <path
         transform="matrix(0.4,0,0,0.4,4,0)"
         style="fill:#262626;fill-opacity:1;fill-rule:evenodd;stroke:#262626;stroke-width:1pt;stroke-opacity:1"
         d="M 0,0 5,-5 -12.5,0 5,5 0,0 Z"
         id="path6181"
         inkscape:connector-curvature="0" />
    </marker>
    <marker
       inkscape:stockid="Arrow1Mend"
       orient="auto"
       refY="0"
       refX="0"
       id="marker6035"
       style="overflow:visible"
       inkscape:isstock="true">
      <path
         id="path6037"
         d="M 0,0 5,-5 -12.5,0 5,5 0,0 Z"
         style="fill:#262626;fill-opacity:1;fill-rule:evenodd;stroke:#262626;stroke-width:1pt;stroke-opacity:1"
         transform="matrix(-0.4,0,0,-0.4,-4,0)"
         inkscape:connector-curvature="0" />
    </marker>
    <marker
       inkscape:stockid="Arrow1Mend"
       orient="auto"
       refY="0"
       refX="0"
       id="marker5828"
       style="overflow:visible"
       inkscape:isstock="true">
      <path
         id="path5830"
         d="M 0,0 5,-5 -12.5,0 5,5 0,0 Z"
         style="fill:#262626;fill-opacity:1;fill-rule:evenodd;stroke:#262626;stroke-width:1pt;stroke-opacity:1"
         transform="matrix(-0.4,0,0,-0.4,-4,0)"
         inkscape:connector-curvature="0" />
    </marker>
    <marker
       inkscape:stockid="Arrow1Mstart"
       orient="auto"
       refY="0"
       refX="0"
       id="Arrow1Mstart"
       style="overflow:visible"
       inkscape:isstock="true"
       inkscape:collect="always">
      <path
         id="path4310"
         d="M 0,0 5,-5 -12.5,0 5,5 0,0 Z"
         style="fill:#000000;fill-opacity:1;fill-rule:evenodd;stroke:#000000;stroke-width:1pt;stroke-opacity:1"
         transform="matrix(0.4,0,0,0.4,4,0)"
         inkscape:connector-curvature="0" />
    </marker>
    <marker
       inkscape:isstock="true"
       style="overflow:visible"
       id="marker5010"
       refX="0"
       refY="0"
       orient="auto"
       inkscape:stockid="Arrow1Mend"
       inkscape:collect="always">
      <path
         inkscape:connector-curvature="0"
         transform="matrix(-0.4,0,0,-0.4,-4,0)"
         style="fill:#000000;fill-opacity:1;fill-rule:evenodd;stroke:#000000;stroke-width:1pt;stroke-opacity:1"
         d="M 0,0 5,-5 -12.5,0 5,5 0,0 Z"
         id="path5012" />
    </marker>
    <marker
       inkscape:stockid="Arrow1Mend"
       orient="auto"
       refY="0"
       refX="0"
       id="marker4696"
       style="overflow:visible"
       inkscape:isstock="true">
      <path
         id="path4698"
         d="M 0,0 5,-5 -12.5,0 5,5 0,0 Z"
         style="fill:#ff2a2a;fill-opacity:1;fill-rule:evenodd;stroke:#ff2a2a;stroke-width:1pt;stroke-opacity:1"
         transform="matrix(-0.4,0,0,-0.4,-4,0)"
         inkscape:connector-curvature="0" />
    </marker>
    <marker
       inkscape:isstock="true"
       style="overflow:visible"
       id="marker4644"
       refX="0"
       refY="0"
       orient="auto"
       inkscape:stockid="Arrow1Mend"
       inkscape:collect="always">
      <path
         transform="matrix(-0.4,0,0,-0.4,-4,0)"
         style="fill:#d40000;fill-opacity:1;fill-rule:evenodd;stroke:#d40000;stroke-width:1pt;stroke-opacity:1"
         d="M 0,0 5,-5 -12.5,0 5,5 0,0 Z"
         id="path4646"
         inkscape:connector-curvature="0" />
    </marker>
    <marker
       inkscape:stockid="Arrow1Mend"
       orient="auto"
       refY="0"
       refX="0"
       id="Arrow1Mend"
       style="overflow:visible"
       inkscape:isstock="true"
       inkscape:collect="always">
      <path
         id="path4313"
         d="M 0,0 5,-5 -12.5,0 5,5 0,0 Z"
         style="fill:#800000;fill-opacity:1;fill-rule:evenodd;stroke:#800000;stroke-width:1pt;stroke-opacity:1"
         transform="matrix(-0.4,0,0,-0.4,-4,0)"
         inkscape:connector-curvature="0" />
    </marker>
    <marker
       inkscape:stockid="Arrow1Lend"
       orient="auto"
       refY="0"
       refX="0"
       id="Arrow1Lend"
       style="overflow:visible"
       inkscape:isstock="true">
      <path
         id="path4307"
         d="M 0,0 5,-5 -12.5,0 5,5 0,0 Z"
         style="fill:#0072bd;fill-opacity:1;fill-rule:evenodd;stroke:#0072bd;stroke-width:1pt;stroke-opacity:1"
         transform="matrix(-0.8,0,0,-0.8,-10,0)"
         inkscape:connector-curvature="0" />
    </marker>
    <marker
       inkscape:stockid="Arrow1Lstart"
       orient="auto"
       refY="0"
       refX="0"
       id="Arrow1Lstart"
       style="overflow:visible"
       inkscape:isstock="true">
      <path
         id="path4304"
         d="M 0,0 5,-5 -12.5,0 5,5 0,0 Z"
         style="fill:#0072bd;fill-opacity:1;fill-rule:evenodd;stroke:#0072bd;stroke-width:1pt;stroke-opacity:1"
         transform="matrix(0.8,0,0,0.8,10,0)"
         inkscape:connector-curvature="0" />
    </marker>
    <linearGradient
       inkscape:collect="always"
       id="linearGradient4292">
      <stop
         style="stop-color:#121622;stop-opacity:1"
         offset="0"
         id="stop4294" />
      <stop
         style="stop-color:#283f91;stop-opacity:0.3019608"
         offset="1"
         id="stop4296" />
    </linearGradient>
    <radialGradient
       inkscape:collect="always"
       xlink:href="#linearGradient4292"
       id="radialGradient4298"
       cx="343.87097"
       cy="233.10391"
       fx="343.87097"
       fy="233.10391"
       r="7.1838131"
       gradientUnits="userSpaceOnUse"
       gradientTransform="matrix(0.9023633,0,0,0.96125922,-26.382701,-182.59817)" />
    <defs
       id="defs1">
      <clipPath
         id="clipPath1"
         clipPathUnits="userSpaceOnUse">
        <path
           inkscape:connector-curvature="0"
           id="path9"
           d="M 0,0 986,0 986,553 0,553 0,0 Z" />
      </clipPath>
    </defs>
  </defs>
  <path
     sodipodi:nodetypes="ccccccccccccccccccccccccccccccccccccccccccccccccccccccccccccccccccccccccccccccccccccccccccccccccccccccccccccccccccccccccccccccccccccccccccccccccccccccccccccccccccccccccccccccccccccccccccccccccccccccccccccccccccccccccccccccccccccccccccccccccccccccccccccccccccccccccccccccccccccccccccccccccccccccccccccccccccccccccccccccccccccccccccccccccccccccccccccccccccccccc"
     d="m 277.12529,41.022146 0.61235,-0.006 0.58754,-0.006 0.56264,-0.006 0.53781,-0.006 0.51299,-0.006 0.48817,-0.006 0.46334,-0.006 0.43859,-0.005 0.41385,-0.005 0.38917,-0.005 0.3645,-0.005 0.33983,-0.005 0.3153,-0.005 0.2907,-0.004 0.26625,-0.004 0.24173,-0.004 0.21743,-0.004 0.19305,-0.004 0.16883,-0.003 0.14468,-0.003 0.12056,-0.003 0.0964,-10e-4 0.0726,-0.001 0.0486,-9.5e-4 0.0249,-4.9e-4 10e-4,0 -0.0225,4e-4 -0.0459,10e-4 -0.0693,10e-4 -0.0926,0.003 -0.11585,0.003 -0.13884,0.003 -0.1618,0.004 -0.18467,0.004 -0.20742,0.005 -0.23006,0.005 -0.25243,0.006 -0.27477,0.008 -0.29697,0.008 -0.31905,0.009 -0.34095,0.009 -0.36277,0.0103 -0.38432,0.0103 -0.40576,0.0116 -0.42717,0.0129 -0.44824,0.0131 -0.46925,0.0139 -0.49011,0.0149 -0.51067,0.0157 -0.53123,0.0166 -0.55157,0.0175 -0.57161,0.0184 -0.59164,0.0193 -0.61132,0.0203 -0.63096,0.0212 -0.65034,0.0223 -0.66956,0.0233 -0.68855,0.0242 -0.70731,0.0252 -0.72594,0.0264 -0.74432,0.0273 -0.76249,0.0284 -0.78052,0.0296 -0.79831,0.0306 -0.81572,0.0317 -0.83324,0.0328 -0.85026,0.034 -0.86718,0.0351 -0.88376,0.0363 -0.9003,0.0374 -0.91644,0.0386 -0.93244,0.0398 -0.94815,0.0411 -0.9637,0.0423 -0.97894,0.0435 -0.99391,0.0448 -1.00871,0.0459 -1.02328,0.0473 -1.03757,0.0485 -1.05148,0.0498 -1.06538,0.0511 -1.07884,0.0525 -1.09208,0.0538 -1.10508,0.0551 -1.11787,0.0564 -1.13028,0.0578 -1.14254,0.0592 -1.15452,0.0605 -1.16609,0.0619 -1.17754,0.0633 -1.18867,0.0647 -1.19953,0.0661 -1.21005,0.0676 -1.22039,0.069 -1.23047,0.0704 -1.24018,0.0718 -1.24962,0.0732 -1.25881,0.0748 -1.2677,0.0762 -1.27632,0.0776 -1.2846,0.0791 -1.29268,0.0805 -1.30038,0.082 -1.30786,0.0836 -1.31496,0.0851 -1.32191,0.0865 -1.32842,0.0882 -1.33471,0.0896 -1.34068,0.0911 -1.34636,0.0926 -1.35175,0.0942 -1.35683,0.0956 -1.36162,0.0973 -1.36611,0.0988 -1.37028,0.10024 -1.3741,0.10192 -1.37777,0.10334 -1.38106,0.10487 -1.38397,0.10656 -1.38667,0.10809 -1.38905,0.10964 -1.39108,0.11118 -1.39287,0.11273 -1.39429,0.11427 -1.39541,0.11595 -1.39631,0.11736 -1.39684,0.11903 -1.39705,0.12045 -1.39699,0.12212 -1.39653,0.12367 -1.39593,0.12521 -1.3949,0.12675 -1.39362,0.1283 -1.39197,0.12991 -1.39011,0.1315 -1.38793,0.13302 -1.38531,0.13453 -1.38256,0.1362 -1.37948,0.13763 -1.37598,0.13922 -1.37224,0.14074 -1.36827,0.14234 -1.36386,0.14385 -1.35929,0.14544 -1.35429,0.14686 -1.34913,0.14847 -1.34353,0.14998 -1.33768,0.15149 -1.33165,0.153 -1.3252,0.15453 -1.31847,0.15603 -1.31145,0.15755 -1.30412,0.15897 -1.29665,0.1605 -1.28863,0.162 -1.2805,0.16352 -1.27205,0.16487 -1.26329,0.16639 -1.25425,0.16791 -1.2449,0.16932 -1.23533,0.1707 -1.22547,0.17219 -1.21529,0.17364 -1.20482,0.17498 -1.19414,0.17643 -1.18315,0.17786 -1.17185,0.17922 -1.16035,0.18063 -1.14852,0.182 -1.13648,0.18335 -1.12407,0.18471 -1.11152,0.18606 -1.09859,0.18741 -1.08557,0.18877 -1.07211,0.19004 -1.05843,0.19132 -1.0446,0.19268 -1.03039,0.19394 -1.01603,0.19521 -1.00138,0.19643 -0.98643,0.19776 -0.97139,0.19896 -0.95593,0.20017 -0.94037,0.20143 -0.92443,0.20262 -0.90837,0.20383 -0.89208,0.20493 -0.87553,0.20622 -0.85881,0.20724 -0.84166,0.20843 -0.82456,0.20957 -0.80705,0.21074 -0.78941,0.21179 -0.77155,0.21282 -0.75344,0.21394 -0.73521,0.21506 -0.71666,0.21601 -0.69788,0.21711 -0.67906,0.21809 -0.65999,0.21911 -0.64062,0.22007 -0.62118,0.22102 -0.60151,0.22198 -0.58163,0.22302 -0.56167,0.22381 -0.54139,0.22478 -0.521,0.22572 -0.50035,0.22653 -0.47971,0.22739 -0.45879,0.22828 -0.43777,0.22915 -0.41647,0.22987 -0.39508,0.23074 -0.37354,0.23145 -0.35186,0.23227 -0.33003,0.23297 -0.30798,0.23369 -0.28598,0.23449 -0.26364,0.23512 -0.24121,0.23576 -0.2187,0.23647 -0.19604,0.23712 -0.17332,0.23775 -0.15036,0.23839 -0.12733,0.23887 -0.10425,0.23951 -0.0809,0.24013 -0.0576,0.24054 -0.0342,0.24118 -0.0109,0.24158 0.013,0.24213 0.0367,0.24254 0.0606,0.24301 0.0844,0.24348 0.1086,0.24381 0.13257,0.24428 0.15672,0.2446 0.18094,0.24491 0.20524,0.24533 0.22954,0.24563 0.25399,0.24588 0.27851,0.2462 0.30297,0.24643 0.32756,0.24668 0.35216,0.2469 0.37676,0.24708 0.40152,0.2473 0.42625,0.24748 0.45101,0.24755 0.47575,0.2477 0.50058,0.24788 0.5254,0.24786 0.55015,0.24802 0.57513,0.24803 0.59987,0.24803 0.62484,0.24811 0.64966,0.24803 0.6745,0.24803 0.69931,0.24793 0.72421,0.24795 0.74904,0.2478 0.77378,0.2477 0.79861,0.24763 0.82335,0.24739 0.84811,0.24731 0.87278,0.24716 0.89738,0.24683 0.92204,0.24675 0.94658,0.24643 0.9711,0.2462 0.99555,0.24588 1.02006,0.24563 1.04431,0.24524 1.06867,0.245 1.09282,0.2446 1.11698,0.24421 1.14111,0.24388 1.16506,0.24341 1.18898,0.24301 1.21282,0.24261 1.23652,0.24205 1.26024,0.24166 1.28371,0.24109 1.30726,0.24063 1.33058,0.24006 1.35377,0.23951 1.37695,0.23894 1.3999,0.23831 1.42292,0.23774 1.44558,0.23712 1.46831,0.23648 1.49082,0.23584 1.51326,0.23512 1.53545,0.23441 1.55759,0.23377 1.57964,0.23297 1.6014,0.23227 1.62316,0.23145 1.6447,0.23067 1.66599,0.22994 1.68731,0.22908 1.7084,0.22827 1.72925,0.2274 1.74997,0.2266 1.77061,0.22565 1.79094,0.22476 1.8112,0.2239 1.83124,0.22293 1.85106,0.22198 1.87079,0.22111 1.89023,0.22007 1.90952,0.21911 1.92867,0.21809 1.94751,0.21704 1.96626,0.21608 1.98475,0.21497 2.00299,0.21394 2.02115,0.21291 2.03895,0.21179 2.05667,0.21067 2.07409,0.20955 2.09128,0.20844 2.10834,0.20733 2.12516,0.20614 2.14161,0.205 2.1579,0.20383 2.17414,0.20255 2.1899,0.20143 2.20553,0.20023 2.22087,0.19897 2.23611,0.19769 2.25092,0.19649 2.26557,0.19522 2.28001,0.19387 2.29421,0.19266 2.30804,0.19141 2.32166,0.19004 2.3351,0.18869 2.34819,0.18741 2.36114,0.18606 2.3736,0.1847 2.38611,0.18336 2.39806,0.18199 2.40988,0.18065 2.42147,0.1792 2.43267,0.17787 2.44376,0.17642 2.45444,0.17507 2.46483,0.17356 2.475,0.17219 2.48494,0.17077 2.49453,0.16933 2.50386,0.16782 2.51283,0.16639 2.52165,0.16496 2.53003,0.16343 2.53827,0.16201 2.5461,0.1605"
     style="color-interpolation:linearRGB;fill:none;fill-rule:evenodd;stroke:#800000;stroke-width:1.70000005;stroke-miterlimit:10;stroke-dasharray:none;marker-end:url(#Arrow1Mend);color-rendering:optimizeQuality;image-rendering:optimizeQuality;text-rendering:geometricPrecision"
     id="path145"
     inkscape:connector-curvature="0" />
  <path
     sodipodi:nodetypes="ccccccccccccccccccccccccccccccccccccccccccccccccccccccccccccccccccccccccccccccccccccccccccccccccccccccccccccccccccccccccccccccccccccccccccccccccccccccccccccccccccccccccccccccccccccccccccccccccccccccccccccccccccccccccccccccccccccccccccccccccccccccccccccccccccccccccccccccccccccccccccccccccccccccccccccccccccccccccccccccccccccccccccccccccccccccccccccccccccccccc"
     d="m 277.24028,41.124886 0.60353,-0.0129 0.57895,-0.0129 0.55449,-0.0116 0.52996,-0.0116 0.50551,-0.0116 0.48114,-0.0116 0.45661,-0.0116 0.43216,-0.0116 0.40787,-0.0103 0.38357,-0.0103 0.35911,-0.0103 0.33489,-0.0103 0.31074,-0.009 0.28644,-0.009 0.26236,-0.008 0.23829,-0.008 0.21429,-0.008 0.19021,-0.006 0.16636,-0.006 0.14258,-0.005 0.11875,-0.004 0.0951,-0.004 0.0715,-0.003 0.048,-0.001 0.0245,-9.5e-4 7.5e-4,-9e-5 -0.0221,9.6e-4 -0.0453,10e-4 -0.0684,0.003 -0.0912,0.004 -0.11416,0.005 -0.13683,0.006 -0.15955,0.008 -0.182,0.009 -0.20433,0.0103 -0.22663,0.0116 -0.24883,0.0129 -0.27081,0.0139 -0.29265,0.0153 -0.31441,0.0167 -0.336,0.0181 -0.35747,0.0197 -0.37879,0.0212 -0.39986,0.0226 -0.42088,0.0243 -0.4418,0.0259 -0.46237,0.0277 -0.48301,0.0292 -0.50327,0.031 -0.52353,0.0327 -0.5435,0.0346 -0.56338,0.0363 -0.58297,0.0381 -0.6025,0.04 -0.62178,0.042 -0.64083,0.0439 -0.65992,0.0458 -0.67845,0.0477 -0.69707,0.0498 -0.71539,0.0519 -0.73349,0.054 -0.75142,0.056 -0.76922,0.0582 -0.78665,0.0604 -0.80399,0.0624 -0.82104,0.0647 -0.83793,0.0669 -0.85453,0.0692 -0.871,0.0716 -0.8872,0.0737 -0.90313,0.0762 -0.91891,0.0785 -0.93439,0.0808 -0.94964,0.0833 -0.96475,0.0857 -0.97947,0.0883 -0.99412,0.0906 -1.00834,0.0932 -1.02246,0.0957 -1.0363,0.0982 -1.04984,0.10077 -1.06314,0.10333 -1.07622,0.10604 -1.08908,0.10861 -1.10157,0.11118 -1.11391,0.11401 -1.12594,0.11659 -1.13769,0.11929 -1.1492,0.122 -1.16041,0.12469 -1.1714,0.12753 -1.18211,0.1303 -1.19249,0.13309 -1.20265,0.13589 -1.21261,0.13875 -1.22209,0.14153 -1.23153,0.14441 -1.24048,0.14719 -1.24925,0.15013 -1.25776,0.15301 -1.26598,0.15595 -1.27384,0.15882 -1.28154,0.16177 -1.28887,0.16471 -1.29589,0.16766 -1.30262,0.17069 -1.30914,0.17355 -1.31533,0.17659 -1.32117,0.17952 -1.32685,0.18265 -1.33209,0.18549 -1.33716,0.18862 -1.3418,0.19163 -1.34622,0.19467 -1.3504,0.19768 -1.35421,0.20071 -1.35773,0.20375 -1.36095,0.20685 -1.36386,0.20987 -1.36655,0.21298 -1.36888,0.21601 -1.37087,0.21904 -1.37255,0.22221 -1.3741,0.22525 -1.37514,0.22827 -1.37605,0.23139 -1.3765,0.23448 -1.37679,0.2376 -1.37665,0.24062 -1.37627,0.24373 -1.3756,0.24675 -1.37463,0.24993 -1.37343,0.25297 -1.37178,0.25599 -1.36993,0.25909 -1.36775,0.26221 -1.3652,0.26523 -1.36244,0.26826 -1.35937,0.27137 -1.356,0.27438 -1.35235,0.27751 -1.34831,0.28044 -1.34412,0.28355 -1.3395,0.28658 -1.33469,0.28953 -1.32947,0.29262 -1.32401,0.29558 -1.31833,0.2986 -1.31226,0.30155 -1.30591,0.30458 -1.29934,0.30744 -1.29238,0.31048 -1.28528,0.31341 -1.27765,0.31637 -1.26995,0.31932 -1.26188,0.32218 -1.25358,0.32504 -1.24498,0.32799 -1.236,0.33079 -1.22688,0.33373 -1.21731,0.33652 -1.20767,0.33938 -1.19765,0.34217 -1.18732,0.34497 -1.17679,0.34774 -1.16595,0.35054 -1.15481,0.35324 -1.14352,0.35595 -1.13185,0.35874 -1.11989,0.36137 -1.10777,0.36408 -1.09537,0.3667 -1.08266,0.36933 -1.06978,0.37204 -1.0565,0.37451 -1.0431,0.37722 -1.02942,0.37968 -1.01543,0.38223 -1.00123,0.38471 -0.98688,0.38726 -0.97214,0.38972 -0.9572,0.39211 -0.94208,0.39458 -0.92668,0.39697 -0.911,0.39936 -0.8952,0.40167 -0.87913,0.40398 -0.86276,0.40638 -0.84631,0.40851 -0.82949,0.41084 -0.81252,0.41305 -0.79539,0.41529 -0.7779,0.41744 -0.76031,0.41951 -0.74254,0.42166 -0.72444,0.42381 -0.70627,0.42581 -0.6878,0.42787 -0.66917,0.42979 -0.65041,0.43186 -0.63135,0.43376 -0.61213,0.43569 -0.59278,0.43759 -0.57318,0.43934 -0.55352,0.44126 -0.53347,0.44309 -0.51344,0.44476 -0.49317,0.44651 -0.47276,0.44826 -0.45206,0.44985 -0.43134,0.45153 -0.41048,0.45313 -0.38933,0.45472 -0.36808,0.45622 -0.34678,0.45775 -0.32524,0.45926 -0.30349,0.4606 -0.28181,0.46205 -0.25982,0.46348 -0.23769,0.46474 -0.21556,0.46604 -0.1932,0.46738 -0.17078,0.46856 -0.14818,0.46978 -0.12546,0.47088 -0.1028,0.47208 -0.0797,0.4732 -0.0568,0.47416 -0.0337,0.47525 -0.0109,0.47623 0.0128,0.47717 0.0362,0.47805 0.0597,0.47902 0.0832,0.4798 0.10691,0.4806 0.13069,0.48141 0.15448,0.4821 0.17824,0.48276 0.20226,0.48347 0.22624,0.4841 0.25032,0.48467 0.27441,0.48523 0.29862,0.48569 0.32278,0.48617 0.34701,0.48666 0.37131,0.48706 0.39575,0.48737 0.41997,0.48769 0.4445,0.48801 0.4688,0.48825 0.49333,0.4884 0.5177,0.488664 0.54222,0.48871 0.56675,0.48889 0.59119,0.48889 0.61573,0.48888 0.64025,0.48889 0.6647,0.48889 0.68914,0.48873 0.71366,0.48856 0.73813,0.48849 0.76256,0.48824 0.78703,0.48801 0.81139,0.48769 0.83577,0.48738 0.86006,0.48705 0.88444,0.48658 0.9086,0.48625 0.93289,0.48571 0.95697,0.48521 0.98111,0.48467 1.00519,0.48402 1.02913,0.48348 1.05312,0.48283 1.07697,0.48211 1.10075,0.4814 1.12452,0.4806 1.14815,0.47981 1.1717,0.47893 1.19519,0.47813 1.21866,0.47717 1.24183,0.47623 1.2651,0.47519 1.28826,0.47423 1.31123,0.47311 1.3341,0.47208 1.3569,0.47097 1.37964,0.46977 1.40222,0.46857 1.42465,0.4673 1.44692,0.46611 1.46921,0.46475 1.49119,0.4634 1.51318,0.46212 1.53493,0.46061 1.55669,0.45925 1.57815,0.45775 1.59961,0.45623 1.62076,0.45463 1.64185,0.45321 1.66272,0.45145 1.68357,0.44993 1.70413,0.44818 1.72462,0.4466 1.74481,0.44476 1.76492,0.44301 1.78496,0.44125 1.80455,0.43943 1.82421,0.4376 1.84358,0.43567 1.86279,0.43377 1.88179,0.43178 1.90062,0.42986 1.91925,0.42787 1.93771,0.42581 1.95587,0.42373 1.9739,0.42166 1.99178,0.41959 2.00933,0.41744 2.02684,0.41522 2.04389,0.41306 2.06093,0.41083 2.07767,0.4086 2.09428,0.40628 2.1105,0.40407 2.12667,0.40166 2.14243,0.39936 2.15804,0.39697 2.17354,0.39451 2.18863,0.39219 2.20359,0.38972 2.21825,0.38718 2.23268,0.38478 2.24688,0.38223 2.26079,0.37969 2.27455,0.37714 2.28792,0.37459 2.30117,0.37196 2.3141,0.36933 2.3268,0.36679 2.33916,0.36407 2.3514,0.36136 2.36322,0.35867 2.37496,0.35602 2.38625,0.35325 2.39732,0.35054 2.40823,0.34775 2.41878,0.34495 2.42901,0.34217 2.43912,0.33932 2.44875,0.33658 2.45834,0.33366 2.46744,0.33086 2.47635,0.32799 2.48495,0.32504 2.49339,0.32219 2.50131,0.31923 2.50911,0.31637"
     style="color-interpolation:linearRGB;fill:none;fill-rule:evenodd;stroke:#d40000;stroke-width:1.70000005;stroke-miterlimit:10;stroke-dasharray:none;marker-end:url(#marker4644);color-rendering:optimizeQuality;image-rendering:optimizeQuality;text-rendering:geometricPrecision"
     id="path147"
     inkscape:connector-curvature="0" />
  <path
     sodipodi:nodetypes="ccccccccccccccccccccccccccccccccccccccccccccccccccccccccccccccccccccccccccccccccccccccccccccccccccccccccccccccccccccccccccccccccccccccccccccccccccccccccccccccccccccccccccccccccccccccccccccccccccccccccccccccccccccccccccccccccccccccccccccccccccccccccccccccccccccccccccccccccccccccccccccccccccccccccccccccccccccccccccccccccccccccccccccccccccccccccccccccccccccccc"
     d="m 277.4213,41.221906 0.58948,-0.018 0.56555,-0.0179 0.54162,-0.0177 0.51763,-0.0176 0.49385,-0.0175 0.46992,-0.0171 0.446,-0.0169 0.42222,-0.0165 0.39837,-0.016 0.37459,-0.0154 0.35089,-0.0149 0.32712,-0.0143 0.30348,-0.0136 0.27979,-0.013 0.25631,-0.0116 0.23275,-0.0116 0.20921,-0.0103 0.18588,-0.009 0.16255,-0.009 0.13921,-0.008 0.11608,-0.006 0.0929,-0.005 0.0698,-0.004 0.0469,-0.003 0.0239,-10e-4 7.5e-4,-8e-5 -0.0215,0.001 -0.0442,0.003 -0.0667,0.004 -0.0891,0.006 -0.11137,0.008 -0.13369,0.009 -0.15582,0.0103 -0.17773,0.0129 -0.1997,0.0145 -0.22139,0.0165 -0.24301,0.0184 -0.26445,0.0203 -0.28592,0.0224 -0.30708,0.0246 -0.32824,0.0266 -0.34916,0.0288 -0.36996,0.031 -0.3906,0.0333 -0.41122,0.0356 -0.43149,0.038 -0.45168,0.0404 -0.47179,0.0428 -0.49161,0.0454 -0.51135,0.048 -0.53085,0.0506 -0.55031,0.0533 -0.56944,0.0559 -0.5885,0.0587 -0.60742,0.0614 -0.62596,0.0642 -0.64452,0.0672 -0.66282,0.07 -0.68084,0.0731 -0.6988,0.0759 -0.71651,0.079 -0.73401,0.0821 -0.75128,0.0852 -0.7684,0.0884 -0.78537,0.0916 -0.80197,0.0947 -0.81849,0.0982 -0.83464,0.1014 -0.8508,0.10475 -0.86657,0.1081 -0.88221,0.11157 -0.8976,0.11504 -0.9127,0.11852 -0.92766,0.12199 -0.94231,0.1256 -0.95674,0.12919 -0.97103,0.13285 -0.98501,0.13652 -0.99869,0.14018 -1.01222,0.14393 -1.02553,0.14767 -1.03846,0.15149 -1.05125,0.15532 -1.06382,0.15913 -1.076,0.16297 -1.08804,0.16694 -1.09985,0.17085 -1.11122,0.17483 -1.12257,0.17873 -1.1335,0.18288 -1.14419,0.18685 -1.15466,0.19084 -1.16482,0.19506 -1.17485,0.19905 -1.18433,0.20325 -1.19384,0.20742 -1.20289,0.21154 -1.2117,0.21577 -1.2203,0.21991 -1.22861,0.22422 -1.2366,0.2285 -1.24423,0.23274 -1.25178,0.23704 -1.25897,0.24126 -1.26582,0.24571 -1.27243,0.24994 -1.27877,0.2544 -1.28476,0.25869 -1.29058,0.26309 -1.29605,0.26753 -1.30113,0.27185 -1.30614,0.27639 -1.31069,0.28067 -1.31504,0.28523 -1.319,0.28961 -1.32281,0.29413 -1.32617,0.29852 -1.3294,0.30307 -1.33223,0.30753 -1.33486,0.31206 -1.33701,0.31645 -1.33911,0.32107 -1.34076,0.32544 -1.3421,0.33007 -1.3433,0.33452 -1.34405,0.33906 -1.34457,0.34354 -1.34487,0.34807 -1.34471,0.35259 -1.34435,0.35708 -1.34374,0.3616 -1.34271,0.36615 -1.3415,0.37061 -1.33994,0.37514 -1.33814,0.37961 -1.33597,0.38415 -1.33357,0.3886 -1.33082,0.39307 -1.32783,0.39761 -1.3246,0.40206 -1.32086,0.40654 -1.31713,0.41098 -1.31287,0.41537 -1.30846,0.41991 -1.30367,0.42429 -1.29859,0.42867 -1.29335,0.43314 -1.28774,0.43742 -1.28177,0.4419 -1.27563,0.4462 -1.2692,0.45056 -1.2624,0.45489 -1.25538,0.45925 -1.24804,0.46348 -1.24049,0.46777 -1.23264,0.47208 -1.22442,0.4763 -1.21612,0.48052 -1.20729,0.48474 -1.1984,0.48898 -1.18912,0.49302 -1.17962,0.49725 -1.16985,0.50139 -1.15981,0.50545 -1.14943,0.50951 -1.13888,0.51351 -1.1281,0.51763 -1.11691,0.52155 -1.10553,0.5256 -1.09401,0.52951 -1.08206,0.53341 -1.06987,0.53731 -1.0576,0.54121 -1.0449,0.54504 -1.03205,0.54878 -1.01886,0.55261 -1.00549,0.55634 -0.99189,0.56001 -0.97805,0.56376 -0.96393,0.56734 -0.94956,0.571 -0.93507,0.57459 -0.92018,0.57809 -0.90514,0.58168 -0.8899,0.58511 -0.87443,0.58852 -0.85872,0.59195 -0.84273,0.5953 -0.82663,0.59872 -0.81028,0.60191 -0.79367,0.60525 -0.77693,0.60836 -0.75987,0.61163 -0.74268,0.61472 -0.72526,0.61784 -0.70768,0.62087 -0.6899,0.62389 -0.6718,0.62691 -0.65371,0.62978 -0.6353,0.63275 -0.61663,0.63551 -0.59799,0.63839 -0.57902,0.64109 -0.55986,0.64389 -0.54058,0.64642 -0.52122,0.64915 -0.50148,0.65176 -0.48174,0.65424 -0.46177,0.6567 -0.44159,0.65919 -0.42139,0.66155 -0.40083,0.663964 -0.38035,0.66618 -0.35957,0.6685 -0.33871,0.67072 -0.31769,0.6728 -0.29646,0.67494 -0.27522,0.67702 -0.25376,0.67901 -0.23224,0.681 -0.21054,0.68282 -0.18873,0.68475 -0.1668,0.68657 -0.14475,0.68824 -0.12263,0.69009 -0.10026,0.69167 -0.078,0.69318 -0.0554,0.69486 -0.0329,0.69629 -0.01,0.69773 0.0126,0.69915 0.0354,0.70052 0.0583,0.70179 0.0813,0.70298 0.1045,0.70418 0.12762,0.70536 0.15088,0.70634 0.17422,0.70745 0.19753,0.70839 0.22095,0.70927 0.2445,0.71007 0.26811,0.71095 0.2916,0.71166 0.3153,0.71239 0.339,0.71301 0.36271,0.71357 0.38649,0.71414 0.41033,0.71453 0.43411,0.71501 0.45795,0.7154 0.48189,0.71566 0.50574,0.71588 0.52959,0.71612 0.55359,0.71628 0.57751,0.71629 0.60144,0.71636 0.6253,0.71636 0.64929,0.71621 0.67321,0.71612 0.69707,0.71597 0.721,0.71564 0.74492,0.71534 0.7687,0.715 0.79255,0.71461 0.8164,0.71413 0.84011,0.71359 0.86388,0.71301 0.88758,0.7123 0.91121,0.71174 0.93476,0.71087 0.95832,0.71016 0.98187,0.70927 1.00533,0.70839 1.0286,0.70737 1.05201,0.7064 1.07524,0.7053 1.09836,0.70417 1.12154,0.70306 1.14448,0.70172 1.16752,0.7005 1.19032,0.69916 1.21305,0.69773 1.23578,0.69636 1.25829,0.69479 1.2808,0.69326 1.30314,0.69168 1.32543,0.68999 1.34764,0.68833 1.36968,0.68649 1.39154,0.68474 1.41342,0.68292 1.43504,0.681 1.45665,0.679 1.47803,0.67701 1.49942,0.67496 1.5205,0.67279 1.54151,0.67073 1.56245,0.66841 1.58316,0.66626 1.60371,0.66388 1.62421,0.66164 1.64455,0.6591 1.66458,0.65678 1.68454,0.65423 1.70435,0.6517 1.72395,0.64914 1.74347,0.64651 1.76275,0.6438 1.78189,0.64118 1.80081,0.6383 1.81951,0.6356 1.83819,0.63265 1.85644,0.62987 1.87476,0.62683 1.89269,0.62389 1.9105,0.62094 1.92814,0.61784 1.94556,0.61474 1.96269,0.61154 1.97981,0.60845 1.99647,0.60524 2.01308,0.60191 2.02946,0.59864 2.04568,0.59529 2.0616,0.59204 2.07723,0.58853 2.09278,0.58509 2.10796,0.58161 2.12307,0.57816 2.13786,0.57452 2.15246,0.571 2.16672,0.56742 2.18086,0.56368 2.19478,0.56008 2.20837,0.55636 2.22176,0.55252 2.23484,0.54886 2.24778,0.54504 2.26034,0.54113 2.27282,0.53732 2.28494,0.53349 2.29676,0.5295 2.30841,0.52552 2.31986,0.52162 2.33084,0.51756 2.34169,0.51358 2.35238,0.50952 2.36262,0.50546 2.37272,0.5013 2.38244,0.49725 2.39201,0.49311 2.40121,0.48896 2.41024,0.48467 2.41886,0.48052 2.4273,0.4763 2.43544,0.47208 2.44338,0.46778 2.45092,0.46355"
     style="color-interpolation:linearRGB;fill:none;fill-rule:evenodd;stroke:#ff2a2a;stroke-width:1.70000005;stroke-miterlimit:10;stroke-dasharray:none;marker-end:url(#marker4696);color-rendering:optimizeQuality;image-rendering:optimizeQuality;text-rendering:geometricPrecision"
     id="path149"
     inkscape:connector-curvature="0" />
  <line
     y2="41.051376"
     style="color-interpolation:linearRGB;fill:none;stroke:#262626;stroke-width:1.5;stroke-miterlimit:10;stroke-dasharray:none;marker-end:url(#marker5828);color-rendering:optimizeQuality;image-rendering:optimizeQuality;text-rendering:geometricPrecision"
     x1="95.482285"
     x2="377.54459"
     y1="41.051376"
     id="line55" />
  <text
     sodipodi:linespacing="125%"
     id="text4748"
     y="70.943604"
     x="61.940918"
     style="font-style:normal;font-weight:normal;font-size:15px;line-height:125%;font-family:sans-serif;text-align:center;letter-spacing:0px;word-spacing:0px;text-anchor:middle;fill:#800000;fill-opacity:1;stroke:none;stroke-width:1px;stroke-linecap:butt;stroke-linejoin:miter;stroke-opacity:1"
     xml:space="preserve"><tspan
       y="70.943604"
       x="61.940918"
       id="tspan4750"
       sodipodi:role="line">$\epsilon = 0.1$</tspan></text>
  <text
     xml:space="preserve"
     style="font-style:normal;font-weight:normal;font-size:15px;line-height:125%;font-family:sans-serif;text-align:center;letter-spacing:0px;word-spacing:0px;text-anchor:middle;fill:#ff2a2a;fill-opacity:1;stroke:none;stroke-width:1px;stroke-linecap:butt;stroke-linejoin:miter;stroke-opacity:1"
     x="61.940918"
     y="155.13881"
     id="text4752"
     sodipodi:linespacing="125%"><tspan
       sodipodi:role="line"
       id="tspan4754"
       x="61.940918"
       y="155.13881">$\epsilon = 0.3$</tspan></text>
  <text
     sodipodi:linespacing="125%"
     id="text4756"
     y="106.18665"
     x="61.940918"
     style="font-style:normal;font-weight:normal;font-size:15px;line-height:125%;font-family:sans-serif;text-align:center;letter-spacing:0px;word-spacing:0px;text-anchor:middle;fill:#d40000;fill-opacity:1;stroke:none;stroke-width:1px;stroke-linecap:butt;stroke-linejoin:miter;stroke-opacity:1"
     xml:space="preserve"><tspan
       y="106.18665"
       x="61.940918"
       id="tspan4758"
       sodipodi:role="line">$\epsilon = 0.2$</tspan></text>
  <text
     sodipodi:linespacing="125%"
     id="text4748-3"
     y="33.5746"
     x="388.68375"
     style="font-style:normal;font-weight:normal;font-size:15px;line-height:125%;font-family:sans-serif;text-align:center;letter-spacing:0px;word-spacing:0px;text-anchor:middle;color-interpolation:auto;fill:#000000;fill-opacity:1;stroke:none;stroke-width:1px;stroke-linecap:butt;stroke-linejoin:miter;stroke-miterlimit:10;stroke-dasharray:none;stroke-dashoffset:0;stroke-opacity:1;color-rendering:auto;image-rendering:auto;shape-rendering:auto;text-rendering:auto"
     xml:space="preserve"><tspan
       style="fill:#000000"
       y="33.5746"
       x="388.68375"
       id="tspan4750-2"
       sodipodi:role="line">$x$ (u.a.)</tspan></text>
  <text
     sodipodi:linespacing="125%"
     id="text4748-3-8"
     y="11.542969"
     x="323.4776"
     style="font-style:normal;font-weight:normal;font-size:15px;line-height:125%;font-family:sans-serif;text-align:center;letter-spacing:0px;word-spacing:0px;text-anchor:middle;color-interpolation:auto;fill:#000000;fill-opacity:1;stroke:none;stroke-width:1px;stroke-linecap:butt;stroke-linejoin:miter;stroke-miterlimit:10;stroke-dasharray:none;stroke-dashoffset:0;stroke-opacity:1;color-rendering:auto;image-rendering:auto;shape-rendering:auto;text-rendering:auto"
     xml:space="preserve"><tspan
       style="fill:#000000"
       y="11.542969"
       x="323.4776"
       id="tspan4750-2-9"
       sodipodi:role="line">$y$ (u.a.)</tspan></text>
  <text
     xml:space="preserve"
     style="font-style:normal;font-weight:normal;font-size:15px;line-height:125%;font-family:sans-serif;text-align:center;letter-spacing:0px;word-spacing:0px;text-anchor:middle;color-interpolation:auto;fill:#000000;fill-opacity:1;stroke:none;stroke-width:1px;stroke-linecap:butt;stroke-linejoin:miter;stroke-miterlimit:10;stroke-dasharray:none;stroke-dashoffset:0;stroke-opacity:1;color-rendering:auto;image-rendering:auto;shape-rendering:auto;text-rendering:auto"
     x="274.25345"
     y="36.610687"
     id="text4832"
     sodipodi:linespacing="125%"><tspan
       sodipodi:role="line"
       id="tspan4834"
       x="274.25345"
       y="36.610687"
       style="fill:#000000">0</tspan></text>
  <text
     xml:space="preserve"
     style="font-style:normal;font-weight:normal;font-size:15px;line-height:125%;font-family:sans-serif;text-align:center;letter-spacing:0px;word-spacing:0px;text-anchor:middle;color-interpolation:auto;fill:#000000;fill-opacity:1;stroke:none;stroke-width:1px;stroke-linecap:butt;stroke-linejoin:miter;stroke-miterlimit:10;stroke-dasharray:none;stroke-dashoffset:0;stroke-opacity:1;color-rendering:auto;image-rendering:auto;shape-rendering:auto;text-rendering:auto"
     x="105.4418"
     y="35.37764"
     id="text4962"
     sodipodi:linespacing="125%"><tspan
       sodipodi:role="line"
       id="tspan4964"
       x="105.4418"
       y="35.37764"
       style="fill:#000000">-25</tspan></text>
  <text
     xml:space="preserve"
     style="font-style:normal;font-weight:normal;font-size:15px;line-height:125%;font-family:sans-serif;text-align:center;letter-spacing:0px;word-spacing:0px;text-anchor:middle;color-interpolation:auto;fill:#000000;fill-opacity:1;stroke:none;stroke-width:1px;stroke-linecap:butt;stroke-linejoin:miter;stroke-miterlimit:10;stroke-dasharray:none;stroke-dashoffset:0;stroke-opacity:1;color-rendering:auto;image-rendering:auto;shape-rendering:auto;text-rendering:auto"
     x="262.62225"
     y="179.8344"
     id="text4962-5"
     sodipodi:linespacing="125%"><tspan
       sodipodi:role="line"
       id="tspan4964-1"
       x="262.62225"
       y="179.8344"
       style="fill:#000000">-30</tspan></text>
  <text
     sodipodi:linespacing="125%"
     id="text4984"
     y="135.41487"
     x="262.64423"
     style="font-style:normal;font-weight:normal;font-size:15px;line-height:125%;font-family:sans-serif;text-align:center;letter-spacing:0px;word-spacing:0px;text-anchor:middle;color-interpolation:auto;fill:#000000;fill-opacity:1;stroke:none;stroke-width:1px;stroke-linecap:butt;stroke-linejoin:miter;stroke-miterlimit:10;stroke-dasharray:none;stroke-dashoffset:0;stroke-opacity:1;color-rendering:auto;image-rendering:auto;shape-rendering:auto;text-rendering:auto"
     xml:space="preserve"><tspan
       style="fill:#000000"
       y="135.41487"
       x="262.64423"
       id="tspan4986"
       sodipodi:role="line">-20</tspan></text>
  <text
     xml:space="preserve"
     style="font-style:normal;font-weight:normal;font-size:15px;line-height:125%;font-family:sans-serif;text-align:center;letter-spacing:0px;word-spacing:0px;text-anchor:middle;color-interpolation:auto;fill:#000000;fill-opacity:1;stroke:none;stroke-width:1px;stroke-linecap:butt;stroke-linejoin:miter;stroke-miterlimit:10;stroke-dasharray:none;stroke-dashoffset:0;stroke-opacity:1;color-rendering:auto;image-rendering:auto;shape-rendering:auto;text-rendering:auto"
     x="262.21576"
     y="89.606888"
     id="text4990"
     sodipodi:linespacing="125%"><tspan
       sodipodi:role="line"
       id="tspan4992"
       x="262.21576"
       y="89.606888"
       style="fill:#000000">-10</tspan></text>
  <path
     d="m 290.39333,41.682674 a 6.4824095,6.9055066 0 0 1 -6.67426,6.694828 6.4824095,6.9055066 0 0 1 -6.28471,-7.109813 6.4824095,6.9055066 0 0 1 6.67414,-6.694969 6.4824095,6.9055066 0 0 1 6.28484,7.109678"
     sodipodi:open="true"
     sodipodi:end="0.030021932"
     sodipodi:start="0.0300619"
     sodipodi:ry="6.9055066"
     sodipodi:rx="6.4824095"
     sodipodi:cy="41.475113"
     sodipodi:cx="283.91385"
     sodipodi:type="arc"
     id="path4290"
     style="opacity:1;fill:url(#radialGradient4298);fill-opacity:1;stroke:none;stroke-width:1;stroke-miterlimit:4;stroke-dasharray:none;stroke-dashoffset:0;stroke-opacity:1" />
  <line
     y2="176.18571"
     style="color-interpolation:linearRGB;fill:none;stroke:#262626;stroke-width:1.5;stroke-miterlimit:10;stroke-dasharray:none;color-rendering:optimizeQuality;image-rendering:optimizeQuality;text-rendering:geometricPrecision"
     x1="277.91376"
     x2="283.6261"
     y1="176.18571"
     id="line99" />
  <line
     id="line4988"
     y1="131.28362"
     x2="283.6261"
     x1="277.91376"
     style="color-interpolation:linearRGB;fill:none;stroke:#262626;stroke-width:1.5;stroke-miterlimit:10;stroke-dasharray:none;color-rendering:optimizeQuality;image-rendering:optimizeQuality;text-rendering:geometricPrecision"
     y2="131.28362" />
  <line
     id="line4994"
     y1="86.3815"
     x2="283.6261"
     x1="277.91376"
     style="color-interpolation:linearRGB;fill:none;stroke:#262626;stroke-width:1.5;stroke-miterlimit:10;stroke-dasharray:none;color-rendering:optimizeQuality;image-rendering:optimizeQuality;text-rendering:geometricPrecision"
     y2="86.3815" />
  <path
     style="fill:none;fill-rule:evenodd;stroke:#000000;stroke-width:0.50000006;stroke-linecap:butt;stroke-linejoin:miter;stroke-miterlimit:10;stroke-dasharray:none;stroke-opacity:1;marker-start:url(#Arrow1Mstart);marker-end:url(#marker5010)"
     d="m 293.31653,43.899806 0,49.39154"
     id="path5002"
     inkscape:connector-curvature="0"
     sodipodi:nodetypes="cc" />
  <text
     xml:space="preserve"
     style="font-style:normal;font-weight:normal;font-size:15px;line-height:125%;font-family:sans-serif;text-align:center;letter-spacing:0px;word-spacing:0px;text-anchor:middle;color-interpolation:auto;fill:#000000;fill-opacity:1;stroke:none;stroke-width:1px;stroke-linecap:butt;stroke-linejoin:miter;stroke-miterlimit:10;stroke-dasharray:none;stroke-dashoffset:0;stroke-opacity:1;color-rendering:auto;image-rendering:auto;shape-rendering:auto;text-rendering:auto"
     x="311.6893"
     y="71.083405"
     id="text4832-8"
     sodipodi:linespacing="125%"><tspan
       sodipodi:role="line"
       id="tspan4834-2"
       x="311.6893"
       y="71.083405"
       style="fill:#000000">$\bar{y}$</tspan></text>
  <line
     y2="40.966171"
     style="font-style:normal;font-weight:normal;font-size:12px;font-family:Dialog;color-interpolation:linearRGB;fill:none;fill-opacity:1;stroke:#262626;stroke-width:1.5;stroke-linecap:square;stroke-linejoin:miter;stroke-miterlimit:10;stroke-dasharray:none;stroke-dashoffset:0;stroke-opacity:1;color-rendering:optimizeQuality;image-rendering:optimizeQuality;shape-rendering:auto;text-rendering:geometricPrecision"
     x1="105.46378"
     x2="105.46378"
     y1="47.051376"
     id="line63-2" />
  <path
     inkscape:connector-curvature="0"
     id="path7656"
     style="font-style:normal;font-weight:normal;font-size:12px;font-family:Dialog;color-interpolation:auto;fill:none;fill-opacity:1;stroke:#7a7a7a;stroke-width:0.89999956;stroke-linecap:round;stroke-linejoin:round;stroke-miterlimit:4;stroke-dasharray:none;stroke-dashoffset:0;stroke-opacity:1;color-rendering:auto;image-rendering:auto;shape-rendering:auto;text-rendering:auto"
     d="m 418.16855,180.79306 c -2.47668,4.79441 -20.83668,8.20227 -41.01018,7.61364 -20.17069,-0.58902 -34.51669,-4.95039 -32.04001,-9.74481 2.47613,-4.79241 20.83838,-8.20026 41.00963,-7.61163 18.45225,0.5385 32.31506,4.26072 32.31506,8.67702" />
  <path
     inkscape:connector-curvature="0"
     id="path7660"
     style="font-style:normal;font-weight:normal;font-size:12px;font-family:Dialog;color-interpolation:auto;fill:#7a7a7a;fill-opacity:1;fill-rule:evenodd;stroke:#7a7a7a;stroke-width:0.45000005;stroke-linecap:butt;stroke-linejoin:miter;stroke-miterlimit:4;stroke-dasharray:none;stroke-dashoffset:0;stroke-opacity:1;color-rendering:auto;image-rendering:auto;shape-rendering:auto;text-rendering:auto"
     d="m 372.89821,188.28355 -2.21683,1.45675 7.54267,-1.30297 -7.36934,-1.73562 2.0435,1.58184 z" />
  <path
     inkscape:connector-curvature="0"
     id="path7664"
     style="font-style:normal;font-weight:normal;font-size:12px;font-family:Dialog;color-interpolation:auto;fill:#7a7a7a;fill-opacity:1;fill-rule:evenodd;stroke:#7a7a7a;stroke-width:0.45000011;stroke-linecap:butt;stroke-linejoin:miter;stroke-miterlimit:4;stroke-dasharray:none;stroke-dashoffset:0;stroke-opacity:1;color-rendering:auto;image-rendering:auto;shape-rendering:auto;text-rendering:auto"
     d="m 346.59246,175.81 -1.26325,-1.95148 -0.57825,5.51761 4.57932,-4.46702 -2.73782,0.90089 z" />
  <path
     inkscape:connector-curvature="0"
     id="path7668"
     style="font-style:normal;font-weight:normal;font-size:12px;font-family:Dialog;color-interpolation:auto;fill:#7a7a7a;fill-opacity:1;fill-rule:evenodd;stroke:#7a7a7a;stroke-width:0.45000005;stroke-linecap:butt;stroke-linejoin:miter;stroke-miterlimit:4;stroke-dasharray:none;stroke-dashoffset:0;stroke-opacity:1;color-rendering:auto;image-rendering:auto;shape-rendering:auto;text-rendering:auto"
     d="m 390.38834,171.17335 2.21683,-1.45675 -7.54087,1.30102 7.36751,1.73798 -2.04347,-1.58225 z" />
  <text
     xml:space="preserve"
     style="font-style:normal;font-weight:normal;font-size:15px;line-height:125%;font-family:sans-serif;text-align:center;letter-spacing:0px;word-spacing:0px;text-anchor:middle;color-interpolation:auto;fill:#7a7a7a;fill-opacity:1;stroke:none;stroke-width:1px;stroke-linecap:butt;stroke-linejoin:miter;stroke-miterlimit:10;stroke-dasharray:none;stroke-dashoffset:0;stroke-opacity:1;color-rendering:auto;image-rendering:auto;shape-rendering:auto;text-rendering:auto"
     x="381.60321"
     y="161.28893"
     id="text11114"
     sodipodi:linespacing="125%"><tspan
       sodipodi:role="line"
       id="tspan11116"
       x="381.60321"
       y="161.28893">$E_{IR}$</tspan></text>
</svg>
