<?xml version="1.0" encoding="UTF-8" standalone="no"?>
<!-- Created with Inkscape (http://www.inkscape.org/) -->

<svg
   xmlns:dc="http://purl.org/dc/elements/1.1/"
   xmlns:cc="http://creativecommons.org/ns#"
   xmlns:rdf="http://www.w3.org/1999/02/22-rdf-syntax-ns#"
   xmlns:svg="http://www.w3.org/2000/svg"
   xmlns="http://www.w3.org/2000/svg"
   xmlns:sodipodi="http://sodipodi.sourceforge.net/DTD/sodipodi-0.dtd"
   xmlns:inkscape="http://www.inkscape.org/namespaces/inkscape"
   width="115.84109mm"
   height="42.923744mm"
   viewBox="0 0 410.46055 152.09201"
   id="svg2"
   version="1.1"
   inkscape:version="0.91 r13725"
   sodipodi:docname="alphaI_varju.svg">
  <defs
     id="defs4">
    <clipPath
       id="clipPath4616"
       clipPathUnits="userSpaceOnUse">
      <path
         inkscape:connector-curvature="0"
         id="path4618"
         d="m 77.249,158.119 337.887,0 0,256.498 -337.887,0 0,-256.498 z" />
    </clipPath>
    <clipPath
       id="clipPath4768"
       clipPathUnits="userSpaceOnUse">
      <path
         inkscape:connector-curvature="0"
         id="path4770"
         d="m 77.249,158.119 337.887,0 0,256.498 -337.887,0 0,-256.498 z" />
    </clipPath>
    <clipPath
       id="clipPath4876"
       clipPathUnits="userSpaceOnUse">
      <path
         inkscape:connector-curvature="0"
         id="path4878"
         d="m 77.249,158.119 337.887,0 0,256.498 -337.887,0 0,-256.498 z" />
    </clipPath>
    <clipPath
       id="clipPath5212"
       clipPathUnits="userSpaceOnUse">
      <path
         inkscape:connector-curvature="0"
         id="path5214"
         d="M 0,0 493,0 493,703 0,703 0,0 Z" />
    </clipPath>
  </defs>
  <sodipodi:namedview
     id="base"
     pagecolor="#ffffff"
     bordercolor="#666666"
     borderopacity="1.0"
     inkscape:pageopacity="0.0"
     inkscape:pageshadow="2"
     inkscape:zoom="2.8"
     inkscape:cx="271.75586"
     inkscape:cy="77.784666"
     inkscape:document-units="px"
     inkscape:current-layer="layer1"
     showgrid="false"
     fit-margin-top="0"
     fit-margin-left="0"
     fit-margin-right="0"
     fit-margin-bottom="0"
     inkscape:window-width="1536"
     inkscape:window-height="803"
     inkscape:window-x="-8"
     inkscape:window-y="-8"
     inkscape:window-maximized="1" />
  <metadata
     id="metadata7">
    <rdf:RDF>
      <cc:Work
         rdf:about="">
        <dc:format>image/svg+xml</dc:format>
        <dc:type
           rdf:resource="http://purl.org/dc/dcmitype/StillImage" />
        <dc:title></dc:title>
      </cc:Work>
    </rdf:RDF>
  </metadata>
  <g
     inkscape:label="Calque 1"
     inkscape:groupmode="layer"
     id="layer1"
     transform="translate(-298.52885,-535.69004)">
    <text
       id="text4386"
       style="font-variant:normal;font-weight:normal;font-size:12.45324993px;font-family:AdvMT_EX;-inkscape-font-specification:AdvMT_EX;writing-mode:lr-tb;fill:#231f20;fill-opacity:1;fill-rule:nonzero;stroke:none"
       x="510.80511"
       y="294.91858">
      <tspan
         id="tspan4388"
         sodipodi:role="line"
         y="294.91858"
         x="510.80511 602.64661"></tspan>
    </text>
    <text
       id="text4748"
       style="font-variant:normal;font-weight:normal;font-size:8.04387474px;font-family:Helvetica;-inkscape-font-specification:Helvetica;writing-mode:lr-tb;fill:#231f20;fill-opacity:1;fill-rule:nonzero;stroke:none"
       x="530.22162"
       y="673.06506">
      <tspan
         id="tspan4750"
         sodipodi:role="line"
         y="673.06506"
         x="530.22162 534.81384 561.83966 566.43195 593.45935 598.05157 625.07898 629.67126 656.69946 661.29175 688.31757 692.90979">101520253035</tspan>
      <tspan
         id="tspan4752"
         sodipodi:role="line"
         y="655.46991"
         x="520.27533 523.08264 527.41589">-25</tspan>
      <tspan
         id="tspan4754"
         sodipodi:role="line"
         y="634.30487"
         x="520.27533 523.08264 527.41589">-20</tspan>
      <tspan
         id="tspan4756"
         sodipodi:role="line"
         y="612.88562"
         x="520.27533 523.08264 527.41589">-15</tspan>
      <tspan
         id="tspan4758"
         sodipodi:role="line"
         y="591.46637"
         x="520.27533 523.08264 527.41589">-10</tspan>
      <tspan
         id="tspan4760"
         sodipodi:role="line"
         y="570.30133"
         x="524.86603 527.41589">-5</tspan>
      <tspan
         id="tspan4762"
         y="548.88129"
         x="527.4151">0</tspan>
    </text>
    <path
       inkscape:connector-curvature="0"
       id="path4772"
       style="fill:none;stroke:#231f20;stroke-width:0.53125;stroke-linecap:round;stroke-linejoin:round;stroke-miterlimit:10;stroke-dasharray:none;stroke-opacity:1"
       d="m 534.80999,663.96945 0,-2.6775 m 15.81,2.6775 0,-1.4025 m 15.81,1.4025 0,-2.6775 m 15.81,2.6775 0,-1.4025 m 15.80875,1.4025 0,-2.6775 m 15.81,2.6775 0,-1.4025 m 15.81,1.4025 0,-2.6775 m 15.81,2.6775 0,-1.4025 m 15.81,1.4025 0,-2.6775 m 15.81125,2.6775 0,-1.4025 m 15.81,1.4025 0,-2.6775 m 15.81,2.6775 0,-1.4025 m -173.91,1.4025 173.91,0 m -173.91,0 1.275,0 m -1.275,-10.71 2.55,0 m -2.55,-10.5825 1.275,0 m -1.275,-10.71 2.55,0 m -2.55,-10.71 1.275,0 m -1.275,-10.71 2.55,0 m -2.55,-10.5825 1.275,0 m -1.275,-10.71 2.55,0 m -2.55,-10.5825 1.275,0 m -1.275,-10.71 2.55,0 m -2.55,-10.5825 1.275,0 m -1.275,-10.71 2.55,0 m -2.55,-10.71 1.275,0 m -1.275,128.01 0,-128.01 m 15.81,0 0,0 m 15.81,0 0,0 m 15.81,0 0,0 m 15.80875,0 0,0 m 15.81,0 0,0 m 15.81,0 0,0 m 15.81,0 0,0 m 15.81,0 0,0 m 15.81125,0 0,0 m 15.81,0 0,0 m 15.81,0 0,0 m -173.91,0 173.91,0 m 0,128.01 0,0 m 0,-10.71 0,0 m 0,-10.5825 0,0 m 0,-10.71 0,0 m 0,-10.71 0,0 m 0,-10.71 0,0 m 0,-10.5825 0,0 m 0,-10.71 0,0 m 0,-10.5825 0,0 m 0,-10.71 0,0 m 0,-10.5825 0,0 m 0,-10.71 0,0 m 0,-10.71 0,0 m 0,128.01 0,-128.01" />
    <path
       inkscape:connector-curvature="0"
       id="path4774"
       style="fill:none;stroke:#454242;stroke-width:1.3075;stroke-linecap:round;stroke-linejoin:round;stroke-miterlimit:10;stroke-dasharray:none;stroke-opacity:1"
       d="m 547.43249,650.58195 1.53,0 m 5.865,-0.51 0.8925,-0.1275 0.51,0 m 5.865,-0.6375 1.53,-0.1275 m 5.865,-0.765 0.255,0 1.1475,-0.255 m 5.865,-0.765 1.275,-0.255 0.255,0 m 5.86375,-1.02 1.40375,-0.255 m 5.86375,-1.1475 0.51125,-0.1275 1.02,-0.1275 m 5.86375,-1.4025 1.40375,-0.255 m 5.99125,-1.4025 1.4025,-0.3825 m 5.865,-1.6575 0.76625,-0.255 0.76375,-0.1275 m 5.865,-1.785 1.4025,-0.51 m 5.86625,-2.04 0,0 1.52875,-0.51 m 5.86625,-2.4225 1.02,-0.3825 0.38125,-0.255 m 5.86625,-2.6775 1.52875,-0.765 m 5.86625,-3.1875 0.255,-0.1275 1.1475,-0.765 m 5.86375,-4.08 1.27625,-0.8925 0.255,-0.1275 m 5.73625,-5.61 1.40375,-1.4025 m 5.4825,-5.61 1.02,-0.8925 0.50875,-0.255 m 5.86625,-2.04 1.40125,-0.255 m -132.98125,-59.2875 2.805,0.3825 2.805,0.255 2.805,0.3825 2.805,0.3825 2.805,0.3825 2.6775,0.3825 2.805,0.51 2.805,0.51 2.805,0.3825 2.805,0.51 2.6775,0.6375 2.80375,0.51 2.80625,0.51 2.805,0.6375 2.80375,0.6375 2.80625,0.6375 2.67625,0.765 2.805,0.6375 2.80625,0.765 2.80375,0.765 2.805,0.765 2.80625,0.8925 2.80375,0.765 2.67875,1.02 2.80375,0.8925 2.805,0.8925 2.80625,1.02 2.67625,1.02 2.80625,1.1475 2.80375,1.1475 2.805,1.1475 2.80625,1.275 2.80375,1.4025 2.805,1.275 2.67875,1.53 2.80375,1.6575 2.80625,1.6575 2.80375,1.785 2.805,2.04 2.80625,2.295 2.67625,2.4225 2.80625,2.9325 2.805,3.1875 2.80375,3.06 2.80625,2.4225 2.67625,1.53 2.805,0.8925 2.80625,0.51 2.80375,0.3825" />
    <path
       inkscape:connector-curvature="0"
       id="path4776"
       style="fill:#454242;fill-opacity:1;fill-rule:evenodd;stroke:none"
       d="m 561.96749,548.45445 c 0,-1.02 -0.8925,-1.9125 -1.9125,-1.9125 -1.1475,0 -1.9125,0.8925 -1.9125,1.9125 0,1.1475 0.765,2.04 1.9125,2.04 1.02,0 1.9125,-0.8925 1.9125,-2.04" />
    <path
       inkscape:connector-curvature="0"
       id="path4778"
       style="fill:none;stroke:#454242;stroke-width:0.53125;stroke-linecap:round;stroke-linejoin:round;stroke-miterlimit:10;stroke-dasharray:none;stroke-opacity:1"
       d="m 561.96749,548.45445 c 0,-1.02 -0.8925,-1.9125 -1.9125,-1.9125 -1.1475,0 -1.9125,0.8925 -1.9125,1.9125 0,1.1475 0.765,2.04 1.9125,2.04 1.02,0 1.9125,-0.8925 1.9125,-2.04 z" />
    <path
       inkscape:connector-curvature="0"
       id="path4780"
       style="fill:#454242;fill-opacity:1;fill-rule:evenodd;stroke:none"
       d="m 574.71749,550.49445 c 0,-1.02 -0.8925,-1.9125 -2.04,-1.9125 -1.1475,0 -1.9125,0.8925 -1.9125,1.9125 0,1.1475 0.765,2.04 1.9125,2.04 1.1475,0 2.04,-0.8925 2.04,-2.04" />
    <path
       inkscape:connector-curvature="0"
       id="path4782"
       style="fill:none;stroke:#454242;stroke-width:0.53125;stroke-linecap:round;stroke-linejoin:round;stroke-miterlimit:10;stroke-dasharray:none;stroke-opacity:1"
       d="m 574.71749,550.49445 c 0,-1.02 -0.8925,-1.9125 -2.04,-1.9125 -1.1475,0 -1.9125,0.8925 -1.9125,1.9125 0,1.1475 0.765,2.04 1.9125,2.04 1.1475,0 2.04,-0.8925 2.04,-2.04 z" />
    <path
       inkscape:connector-curvature="0"
       id="path4784"
       style="fill:#454242;fill-opacity:1;fill-rule:evenodd;stroke:none"
       d="m 587.33874,553.42695 c 0,-1.02 -0.89125,-1.9125 -2.03875,-1.9125 -1.14875,0 -1.9125,0.8925 -1.9125,1.9125 0,1.1475 0.76375,2.04 1.9125,2.04 1.1475,0 2.03875,-0.8925 2.03875,-2.04" />
    <path
       inkscape:connector-curvature="0"
       id="path4786"
       style="fill:none;stroke:#454242;stroke-width:0.53125;stroke-linecap:round;stroke-linejoin:round;stroke-miterlimit:10;stroke-dasharray:none;stroke-opacity:1"
       d="m 587.33874,553.42695 c 0,-1.02 -0.89125,-1.9125 -2.03875,-1.9125 -1.14875,0 -1.9125,0.8925 -1.9125,1.9125 0,1.1475 0.76375,2.04 1.9125,2.04 1.1475,0 2.03875,-0.8925 2.03875,-2.04 z" />
    <path
       inkscape:connector-curvature="0"
       id="path4788"
       style="fill:#454242;fill-opacity:1;fill-rule:evenodd;stroke:none"
       d="m 599.96124,553.29945 c 0,-1.02 -0.8925,-1.9125 -2.04,-1.9125 -1.1475,0 -1.91125,0.8925 -1.91125,1.9125 0,1.1475 0.76375,2.04 1.91125,2.04 1.1475,0 2.04,-0.8925 2.04,-2.04" />
    <path
       inkscape:connector-curvature="0"
       id="path4790"
       style="fill:none;stroke:#454242;stroke-width:0.53125;stroke-linecap:round;stroke-linejoin:round;stroke-miterlimit:10;stroke-dasharray:none;stroke-opacity:1"
       d="m 599.96124,553.29945 c 0,-1.02 -0.8925,-1.9125 -2.04,-1.9125 -1.1475,0 -1.91125,0.8925 -1.91125,1.9125 0,1.1475 0.76375,2.04 1.91125,2.04 1.1475,0 2.04,-0.8925 2.04,-2.04 z" />
    <path
       inkscape:connector-curvature="0"
       id="path4792"
       style="fill:#454242;fill-opacity:1;fill-rule:evenodd;stroke:none"
       d="m 612.58374,558.39945 c 0,-1.02 -0.8925,-1.9125 -1.9125,-1.9125 -1.1475,0 -1.91125,0.8925 -1.91125,1.9125 0,1.1475 0.76375,2.04 1.91125,2.04 1.02,0 1.9125,-0.8925 1.9125,-2.04" />
    <path
       inkscape:connector-curvature="0"
       id="path4794"
       style="fill:none;stroke:#454242;stroke-width:0.53125;stroke-linecap:round;stroke-linejoin:round;stroke-miterlimit:10;stroke-dasharray:none;stroke-opacity:1"
       d="m 612.58374,558.39945 c 0,-1.02 -0.8925,-1.9125 -1.9125,-1.9125 -1.1475,0 -1.91125,0.8925 -1.91125,1.9125 0,1.1475 0.76375,2.04 1.91125,2.04 1.02,0 1.9125,-0.8925 1.9125,-2.04 z" />
    <path
       inkscape:connector-curvature="0"
       id="path4796"
       style="fill:#ffffff;fill-opacity:1;fill-rule:evenodd;stroke:none"
       d="m 555.71999,542.71695 c 0,-1.1475 -0.8925,-1.9125 -2.04,-1.9125 -1.1475,0 -1.9125,0.765 -1.9125,1.9125 0,1.02 0.765,1.9125 1.9125,1.9125 1.1475,0 2.04,-0.8925 2.04,-1.9125" />
    <path
       inkscape:connector-curvature="0"
       id="path4798"
       style="fill:none;stroke:#454242;stroke-width:0.53125;stroke-linecap:round;stroke-linejoin:round;stroke-miterlimit:10;stroke-dasharray:none;stroke-opacity:1"
       d="m 555.71999,542.71695 c 0,-1.1475 -0.8925,-1.9125 -2.04,-1.9125 -1.1475,0 -1.9125,0.765 -1.9125,1.9125 0,1.02 0.765,1.9125 1.9125,1.9125 1.1475,0 2.04,-0.8925 2.04,-1.9125 z" />
    <path
       inkscape:connector-curvature="0"
       id="path4800"
       style="fill:#ffffff;fill-opacity:1;fill-rule:evenodd;stroke:none"
       d="m 568.34249,547.05195 c 0,-1.02 -0.8925,-1.9125 -2.04,-1.9125 -1.1475,0 -1.9125,0.8925 -1.9125,1.9125 0,1.1475 0.765,2.04 1.9125,2.04 1.1475,0 2.04,-0.8925 2.04,-2.04" />
    <path
       inkscape:connector-curvature="0"
       id="path4802"
       style="fill:none;stroke:#454242;stroke-width:0.53125;stroke-linecap:round;stroke-linejoin:round;stroke-miterlimit:10;stroke-dasharray:none;stroke-opacity:1"
       d="m 568.34249,547.05195 c 0,-1.02 -0.8925,-1.9125 -2.04,-1.9125 -1.1475,0 -1.9125,0.8925 -1.9125,1.9125 0,1.1475 0.765,2.04 1.9125,2.04 1.1475,0 2.04,-0.8925 2.04,-2.04 z" />
    <path
       inkscape:connector-curvature="0"
       id="path4804"
       style="fill:#ffffff;fill-opacity:1;fill-rule:evenodd;stroke:none"
       d="m 580.96374,549.98445 c 0,-1.1475 -0.89125,-1.9125 -2.03875,-1.9125 -1.14875,0 -1.9125,0.765 -1.9125,1.9125 0,1.02 0.76375,1.9125 1.9125,1.9125 1.1475,0 2.03875,-0.8925 2.03875,-1.9125" />
    <path
       inkscape:connector-curvature="0"
       id="path4806"
       style="fill:none;stroke:#454242;stroke-width:0.53125;stroke-linecap:round;stroke-linejoin:round;stroke-miterlimit:10;stroke-dasharray:none;stroke-opacity:1"
       d="m 580.96374,549.98445 c 0,-1.1475 -0.89125,-1.9125 -2.03875,-1.9125 -1.14875,0 -1.9125,0.765 -1.9125,1.9125 0,1.02 0.76375,1.9125 1.9125,1.9125 1.1475,0 2.03875,-0.8925 2.03875,-1.9125 z" />
    <path
       inkscape:connector-curvature="0"
       id="path4808"
       style="fill:#ffffff;fill-opacity:1;fill-rule:evenodd;stroke:none"
       d="m 593.58624,553.29945 c 0,-1.02 -0.8925,-1.9125 -1.9125,-1.9125 -1.1475,0 -1.91125,0.8925 -1.91125,1.9125 0,1.1475 0.76375,2.04 1.91125,2.04 1.02,0 1.9125,-0.8925 1.9125,-2.04" />
    <path
       inkscape:connector-curvature="0"
       id="path4810"
       style="fill:none;stroke:#454242;stroke-width:0.53125;stroke-linecap:round;stroke-linejoin:round;stroke-miterlimit:10;stroke-dasharray:none;stroke-opacity:1"
       d="m 593.58624,553.29945 c 0,-1.02 -0.8925,-1.9125 -1.9125,-1.9125 -1.1475,0 -1.91125,0.8925 -1.91125,1.9125 0,1.1475 0.76375,2.04 1.91125,2.04 1.02,0 1.9125,-0.8925 1.9125,-2.04 z" />
    <path
       inkscape:connector-curvature="0"
       id="path4812"
       style="fill:#ffffff;fill-opacity:1;fill-rule:evenodd;stroke:none"
       d="m 606.33624,557.25195 c 0,-1.1475 -0.8925,-1.9125 -2.04,-1.9125 -1.1475,0 -1.91125,0.765 -1.91125,1.9125 0,1.02 0.76375,1.9125 1.91125,1.9125 1.1475,0 2.04,-0.8925 2.04,-1.9125" />
    <path
       inkscape:connector-curvature="0"
       id="path4814"
       style="fill:none;stroke:#454242;stroke-width:0.53125;stroke-linecap:round;stroke-linejoin:round;stroke-miterlimit:10;stroke-dasharray:none;stroke-opacity:1"
       d="m 606.33624,557.25195 c 0,-1.1475 -0.8925,-1.9125 -2.04,-1.9125 -1.1475,0 -1.91125,0.765 -1.91125,1.9125 0,1.02 0.76375,1.9125 1.91125,1.9125 1.1475,0 2.04,-0.8925 2.04,-1.9125 z" />
    <text
       id="text4816"
       style="font-variant:normal;font-weight:normal;font-size:10.26962471px;font-family:Symbol;-inkscape-font-specification:Symbol;writing-mode:lr-tb;fill:#231f20;fill-opacity:1;fill-rule:nonzero;stroke:none"
       transform="matrix(0,-1,1,0,0,0)"
       x="-614.49921"
       y="516.66309">
      <tspan
         id="tspan4818"
         sodipodi:role="line"
         y="516.66309"
         x="-614.49921 -609.3952">∂Φ</tspan>
    </text>
    <text
       id="text4820"
       style="font-variant:normal;font-weight:normal;font-size:10.35675049px;font-family:Helvetica;-inkscape-font-specification:Helvetica;writing-mode:lr-tb;fill:#231f20;fill-opacity:1;fill-rule:nonzero;stroke:none"
       transform="matrix(0,-1,1,0,0,0)"
       x="-601.6651"
       y="516.53674">
      <tspan
         id="tspan4822"
         y="516.53674"
         x="-601.6651">/</tspan>
    </text>
    <text
       id="text4824"
       style="font-variant:normal;font-weight:normal;font-size:10.26962471px;font-family:Symbol;-inkscape-font-specification:Symbol;writing-mode:lr-tb;fill:#231f20;fill-opacity:1;fill-rule:nonzero;stroke:none"
       transform="matrix(0,-1,1,0,0,0)"
       x="-598.81696"
       y="516.66309">
      <tspan
         id="tspan4826"
         y="516.66309"
         x="-598.81696">∂</tspan>
    </text>
    <text
       id="text4828"
       style="font-variant:normal;font-weight:normal;font-size:10.35675049px;font-family:Helvetica;-inkscape-font-specification:Helvetica;writing-mode:lr-tb;fill:#231f20;fill-opacity:1;fill-rule:nonzero;stroke:none"
       transform="matrix(0,-1,1,0,0,0)"
       x="-593.76031"
       y="516.53674">
      <tspan
         id="tspan4830"
         y="516.53674"
         x="-593.76031">I</tspan>
    </text>
    <text
       id="text4832"
       style="font-variant:normal;font-weight:normal;font-size:10.35675049px;font-family:Helvetica;-inkscape-font-specification:Helvetica;writing-mode:lr-tb;fill:#231f20;fill-opacity:1;fill-rule:nonzero;stroke:none"
       x="579.65784"
       y="684.2851">
      <tspan
         id="tspan4834"
         sodipodi:role="line"
         x="579.65784"
         y="684.2851">Ordre harmonique</tspan>
    </text>
    <text
       id="text4836"
       style="font-variant:normal;font-weight:normal;font-size:8.04387474px;font-family:Helvetica;-inkscape-font-specification:Helvetica;writing-mode:lr-tb;fill:#231f20;fill-opacity:1;fill-rule:nonzero;stroke:none"
       x="320.10175"
       y="673.06506">
      <tspan
         id="tspan4838"
         y="673.06506"
         x="320.10175">0</tspan>
      <tspan
         id="tspan4840"
         sodipodi:role="line"
         y="674.59503"
         x="363.70596 368.04083 372.12067 376.71292">1x10</tspan>
    </text>
    <text
       id="text4842"
       style="font-variant:normal;font-weight:normal;font-size:4.82649994px;font-family:Helvetica;-inkscape-font-specification:Helvetica;writing-mode:lr-tb;fill:#231f20;fill-opacity:1;fill-rule:nonzero;stroke:none"
       x="381.04648"
       y="670.26007">
      <tspan
         id="tspan4844"
         sodipodi:role="line"
         y="670.26007"
         x="381.04648 383.85117">14</tspan>
    </text>
    <text
       id="text4846"
       style="font-variant:normal;font-weight:normal;font-size:8.04387474px;font-family:Helvetica;-inkscape-font-specification:Helvetica;writing-mode:lr-tb;fill:#231f20;fill-opacity:1;fill-rule:nonzero;stroke:none"
       x="416.23611"
       y="674.59509">
      <tspan
         id="tspan4848"
         sodipodi:role="line"
         y="674.59509"
         x="416.23611 420.82837 424.90582 429.24066">2x10</tspan>
    </text>
    <text
       id="text4850"
       style="font-variant:normal;font-weight:normal;font-size:4.82649994px;font-family:Helvetica;-inkscape-font-specification:Helvetica;writing-mode:lr-tb;fill:#231f20;fill-opacity:1;fill-rule:nonzero;stroke:none"
       x="433.83099"
       y="670.26007">
      <tspan
         id="tspan4852"
         sodipodi:role="line"
         y="670.26007"
         x="433.83099 436.63568">14</tspan>
    </text>
    <text
       id="text4854"
       style="font-variant:normal;font-weight:normal;font-size:8.04387474px;font-family:Helvetica;-inkscape-font-specification:Helvetica;writing-mode:lr-tb;fill:#231f20;fill-opacity:1;fill-rule:nonzero;stroke:none"
       x="469.022"
       y="674.59509">
      <tspan
         id="tspan4856"
         sodipodi:role="line"
         y="674.59509"
         x="469.022 473.61423 477.43588 482.02814">3x10</tspan>
    </text>
    <text
       id="text4858"
       style="font-variant:normal;font-weight:normal;font-size:4.82649994px;font-family:Helvetica;-inkscape-font-specification:Helvetica;writing-mode:lr-tb;fill:#231f20;fill-opacity:1;fill-rule:nonzero;stroke:none"
       x="486.61685"
       y="670.26007">
      <tspan
         id="tspan4860"
         sodipodi:role="line"
         y="670.26007"
         x="486.61685 489.16574">14</tspan>
    </text>
    <text
       id="text4862"
       style="font-variant:normal;font-weight:normal;font-size:8.04387474px;font-family:Helvetica;-inkscape-font-specification:Helvetica;writing-mode:lr-tb;fill:#231f20;fill-opacity:1;fill-rule:nonzero;stroke:none"
       x="307.86185"
       y="642.21021">
      <tspan
         id="tspan4864"
         sodipodi:role="line"
         y="642.21021"
         x="307.86185 310.66916 315.00241">-20</tspan>
      <tspan
         id="tspan4866"
         y="610.33557"
         x="315.00162">0</tspan>
      <tspan
         id="tspan4868"
         sodipodi:role="line"
         y="578.20587"
         x="310.66675 315.00162">20</tspan>
      <tspan
         id="tspan4870"
         sodipodi:role="line"
         y="546.33124"
         x="310.66675 315.00162">40</tspan>
    </text>
    <path
       inkscape:connector-curvature="0"
       id="path4880"
       style="fill:none;stroke:#231f20;stroke-width:0.53125;stroke-linecap:round;stroke-linejoin:round;stroke-miterlimit:10;stroke-dasharray:none;stroke-opacity:1"
       d="m 322.39624,663.96945 0,-2.55 m 26.3925,2.55 0,-1.275 m 26.265,1.275 0,-2.55 m 26.39125,2.55 0,-1.275 m 26.3925,1.275 0,-2.55 m 26.3925,2.55 0,-1.275 m 26.265,1.275 0,-2.55 m -158.09875,2.55 173.90875,0 m -173.90875,-8.0325 1.27375,0 m -1.27375,-15.9375 2.55,0 m -2.55,-16.065 1.27375,0 m -1.27375,-15.9375 2.55,0 m -2.55,-16.065 1.27375,0 m -1.27375,-15.9375 2.55,0 m -2.55,-16.065 1.27375,0 m -1.27375,-15.9375 2.55,0 m -2.55,119.9775 0,-128.01 m 26.3925,0 0,0 m 26.265,0 0,0 m 26.39125,0 0,0 m 26.3925,0 0,0 m 26.3925,0 0,0 m 26.265,0 0,0 m -158.09875,0 173.90875,0 m 0,119.9775 0,0 m 0,-15.9375 0,0 m 0,-16.065 0,0 m 0,-15.9375 0,0 m 0,-16.065 0,0 m 0,-15.9375 0,0 m 0,-16.065 0,0 m 0,-15.9375 0,0 m 0,119.9775 0,-128.01" />
    <path
       inkscape:connector-curvature="0"
       id="path4882"
       style="fill:none;stroke:#454242;stroke-width:1.3075;stroke-linecap:round;stroke-linejoin:round;stroke-miterlimit:10;stroke-dasharray:none;stroke-opacity:1"
       d="m 332.97874,544.62945 1.4025,0.51 m 5.865,2.4225 0.6375,0.1275 0.8925,0.3825 m 5.86375,2.4225 1.02,0.51 0.38375,0.1275 m 5.865,2.805 0.12625,0.1275 1.40375,0.765 m 5.865,3.4425 0.63625,0.3825 0.76625,0.3825 m 5.9925,3.6975 1.1475,0.8925 0.255,0.1275 m 5.86375,3.825 0.25625,0.1275 1.27375,0.765 m 5.865,4.08 0.76625,0.51 0.63625,0.3825 m 5.865,4.08 1.40375,0.8925 0.1275,0.1275 m 5.86375,4.08 0.255,0.255 1.1475,0.765 m 5.865,4.08 1.02,0.6375 0.51,0.3825 m 5.865,4.08 1.4025,1.1475 m 5.865,4.08 0.51,0.255 1.02,0.765 m 5.865,4.2075 1.02,0.765 0.38375,0.255 m 5.865,4.2075 0.12625,0 1.40375,1.02 m 5.865,4.2075 0.63625,0.51 0.765,0.51 m 5.865,4.2075 1.27625,0.8925 0.25375,0.255 m 5.865,4.2075 0.1275,0.1275 1.275,0.8925 m 5.865,4.2075 0.765,0.6375 0.76625,0.51 m 5.86375,4.2075 1.275,0.8925 0.1275,0.1275 m 5.865,4.335 0.3825,0.1275 1.1475,0.8925 m 5.865,4.335 0.8925,0.6375 0.51,0.3825 m -134.895,-93.7125 1.53,0.255 1.6575,0.255 1.53,0.255 1.6575,0.1275 1.53,0.255 1.6575,0.1275 1.53,0.1275 1.53,0.255 1.6575,0.1275 1.53,0.1275 1.6575,0.1275 1.53,0.1275 1.53125,0.1275 1.65625,0 1.53125,0.1275 1.53,0.1275 1.6575,0 1.53,0.1275 1.6575,0.1275 1.53,0 1.53,0.1275 1.6575,0 1.53,0.1275 1.6575,0 1.53,0.1275 3.1875,0 1.52875,0.1275 1.65875,0 1.52875,0.1275 3.1875,0 1.53,0.1275 3.1875,0 1.53,0.1275 4.845,0 1.53,0.1275 4.7175,0 1.6575,0.1275 4.7175,0 1.53,0.1275 6.375,0 1.53,0.1275 7.90625,0 1.65625,0.1275 7.90625,0 1.53,0.1275 12.75,0 1.52875,0.1275 11.0925,0 1.53,0.1275 7.905,0" />
    <text
       id="text4884"
       style="font-variant:normal;font-weight:normal;font-size:10.26962471px;font-family:Symbol;-inkscape-font-specification:Symbol;writing-mode:lr-tb;fill:#231f20;fill-opacity:1;fill-rule:nonzero;stroke:none"
       transform="matrix(0,-1,1,0,0,0)"
       x="-607.38892"
       y="306.07562">
      <tspan
         id="tspan4886"
         y="306.07562"
         x="-607.38892">Φ</tspan>
    </text>
    <text
       id="text4888"
       style="font-variant:normal;font-weight:normal;font-size:10.35675049px;font-family:Helvetica;-inkscape-font-specification:Helvetica;writing-mode:lr-tb;fill:#231f20;fill-opacity:1;fill-rule:nonzero;stroke:none"
       x="370.08173"
       y="685.60248">
      <tspan
         id="tspan4890"
         sodipodi:role="line"
         x="370.08173"
         y="685.60248">Intensité (W/cm²)</tspan>
    </text>
  </g>
</svg>
