<?xml version="1.0" encoding="UTF-8" standalone="no"?>
<svg
   xmlns:dc="http://purl.org/dc/elements/1.1/"
   xmlns:cc="http://creativecommons.org/ns#"
   xmlns:rdf="http://www.w3.org/1999/02/22-rdf-syntax-ns#"
   xmlns:svg="http://www.w3.org/2000/svg"
   xmlns="http://www.w3.org/2000/svg"
   xmlns:xlink="http://www.w3.org/1999/xlink"
   xmlns:sodipodi="http://sodipodi.sourceforge.net/DTD/sodipodi-0.dtd"
   xmlns:inkscape="http://www.inkscape.org/namespaces/inkscape"
   height="519"
   viewBox="0 0 765 519"
   width="765"
   id="svg2"
   version="1.1"
   inkscape:version="0.91 r13725"
   sodipodi:docname="Chirality_with_hands.svg">
  <metadata
     id="metadata175">
    <rdf:RDF>
      <cc:Work
         rdf:about="">
        <dc:format>image/svg+xml</dc:format>
        <dc:type
           rdf:resource="http://purl.org/dc/dcmitype/StillImage" />
        <dc:title></dc:title>
      </cc:Work>
    </rdf:RDF>
  </metadata>
  <sodipodi:namedview
     pagecolor="#ffffff"
     bordercolor="#666666"
     borderopacity="1"
     objecttolerance="10"
     gridtolerance="10"
     guidetolerance="10"
     inkscape:pageopacity="0"
     inkscape:pageshadow="2"
     inkscape:window-width="1536"
     inkscape:window-height="803"
     id="namedview173"
     showgrid="false"
     inkscape:zoom="0.45472062"
     inkscape:cx="382.5"
     inkscape:cy="259.5"
     inkscape:window-x="-8"
     inkscape:window-y="-8"
     inkscape:window-maximized="1"
     inkscape:current-layer="svg2" />
  <defs
     id="defs4">
    <linearGradient
       id="g">
      <stop
         id="stop7" />
      <stop
         stop-color="#bfbfbf"
         offset=".49"
         id="stop9" />
      <stop
         stop-color="#fff"
         offset=".71"
         id="stop11" />
      <stop
         stop-color="#888"
         offset="1"
         id="stop13" />
    </linearGradient>
    <linearGradient
       id="j"
       x1="327.2"
       xlink:href="#g"
       gradientUnits="userSpaceOnUse"
       x2="327.2"
       gradientTransform="matrix(.9971 0 0 .6399 320.4 -46.58)"
       y1="567.8"
       y2="523.2" />
    <clipPath
       id="i"
       clipPathUnits="userSpaceOnUse">
      <path
         d="m261.7 148.6c6.1 0 11-4.9 11-10.9 0-6.1-4.9-11-11-11l-117.2-50c21.6 0 39.2 28.4 39.2 63.5s-17.6 63.5-39.2 63.5z"
         id="path17" />
    </clipPath>
    <radialGradient
       id="f"
       gradientUnits="userSpaceOnUse"
       cy="389.7"
       cx="342.6"
       gradientTransform="matrix(1.384 .799 -.8336 1.444 193.3 -446.7)"
       r="25.22">
      <stop
         stop-color="#fff"
         id="stop20" />
      <stop
         stop-color="#eb7548"
         offset=".5"
         id="stop22" />
      <stop
         stop-color="#7c0000"
         offset="1"
         id="stop24" />
    </radialGradient>
    <radialGradient
       id="e"
       gradientUnits="userSpaceOnUse"
       cy="430.3"
       cx="412.6"
       gradientTransform="matrix(1.395 .4125 -.3858 1.305 2.916 -301.5)"
       r="8.671">
      <stop
         stop-color="#fff"
         id="stop27" />
      <stop
         stop-color="#999"
         offset="1"
         id="stop29" />
    </radialGradient>
    <radialGradient
       id="d"
       gradientUnits="userSpaceOnUse"
       cy="429.4"
       cx="366.8"
       gradientTransform="matrix(1.002 .2684 -.2665 .9946 113.8 -96.16)"
       r="12.45">
      <stop
         stop-color="#ccc"
         id="stop32" />
      <stop
         stop-color="#222"
         offset="1"
         id="stop34" />
    </radialGradient>
    <radialGradient
       id="c"
       gradientUnits="userSpaceOnUse"
       cy="430.1"
       cx="324.5"
       gradientTransform="matrix(1.384 .3709 -.4338 1.619 61.93 -386.5)"
       r="23.12">
      <stop
         stop-color="#fff"
         id="stop37" />
      <stop
         stop-color="#2ca0a0"
         offset=".64"
         id="stop39" />
      <stop
         stop-color="#333"
         offset="1"
         id="stop41" />
    </radialGradient>
    <radialGradient
       id="b"
       gradientUnits="userSpaceOnUse"
       cy="476.1"
       cx="335.5"
       gradientTransform="matrix(1.55 .2883 -.2884 1.55 -47.07 -358.6)"
       r="17.03">
      <stop
         stop-color="#fff"
         id="stop44" />
      <stop
         stop-color="#5429a3"
         offset=".693"
         id="stop46" />
      <stop
         stop-color="#333"
         offset="1"
         id="stop48" />
    </radialGradient>
  </defs>
  <g
     id="q"
     stroke="#bbb"
     stroke-linejoin="round"
     stroke-width="1"
     transform="matrix(3 0 0 3 -510 -997.4)"
     stroke-linecap="round"
     clip-rule="evenodd"
     fill="#fcfcfc">
    <path
       stroke="#777"
       d="m385.3 502.7c-1-5.9 1.7-14.2 4.2-19.3 10-12.6 19.2-25.3 21.5-41.3 2.9-1 1.8-14.8 3.3-18.4 2.4-6.2 4.4-14.4 1.7-20.8-0.5-2.9 0.9-7.5-2.1-13-4.4-3.5-8.5-0.2-11.2 3-4.3 5-3.8 15.6-4.2 24-3 4.5-4.1 8-5.4 7.6-0.2-1.1-0.4-2.2-0.5-3.3-3.1-21.4 3.6-44.3 2.5-66.5-0.1-3.1-0.1-6.8-2.4-8.9-2.4-2.3-6.9-2.1-8.9 0.9-5.3 16.4-5.9 33.6-9.6 50.4-0.4 0.3-0.8 0.6-1.2 0.8-4.7-20.4 0.1-43.2-10.5-61.5-1.6-1.7-5.2-1.8-7 0-8 7.9-1.3 22.4-2 33 5.6 8.2-13.4 9.7-10.2-2.1-0.8-7.7-6.3-27.2-16.5-17.6-2.5 2.5 2.3 18.6 2.3 22.9 1.2 4.9-0.6 16.4-6.7 7.6-1.9-4.7-6-14-10.1-14.6h-0.3c-1.8 0-4.1 1.3-4.3 2-4.2 15.7 8.7 32.3 12.3 46.6 0.4 14.5 5.4 32.8 4.7 41-1.6 11.3 6.6 18.7 6.9 31.9-2.5 3.8-2.7 11-3.4 15.1"
       id="path51" />
    <path
       stroke="#777"
       d="m416 402.9c-1.1 0.6-2.9 1.6-4.5 1.2-2.4-2.6-0.8-10.3 2.5-13.9"
       id="path53" />
    <path
       d="m373 398.6c0 1-0.2 1.6 0.5 2.2 3.8 2.8 10.9 4.3 15 6.9"
       id="path55" />
    <path
       d="m382.9 444.8c9.8-3 8.5-12.5 10.3-19.4-0.9 3.6 1 18.7 5.4 18"
       id="path57" />
    <path
       d="m338.5 494.7c3 1.5 6.6 2.9 9.9 2.9"
       id="path59" />
    <path
       d="m368.8 497.7c-6.9 0-16-1.8-21.6-3.2"
       id="path61" />
    <path
       d="m343.1 493.6c4.4 0.6 9.8 1.3 13.8 0.8"
       id="path63" />
    <path
       d="m390.3 482c-13.2 7.5-26.6 9.6-29.9-7.8-0.3-8.4 4.3-18.9 11.9-22.3"
       id="path65" />
    <path
       d="m379.7 381.1c2.6 0.7 7.4 1 8.8-0.2"
       id="path67" />
    <path
       d="m380.8 383.5c2.4-1.1 6.4 1 9.8 1.1"
       id="path69" />
    <path
       d="m383.4 358.3c3.1-0.7 5.4 0.5 7.6 1"
       id="path71" />
    <path
       d="m399.1 417.6c1.1 1.5 5.3 2.6 5.2 1.8"
       id="path73" />
    <path
       d="m354.6 356.3c3.3-0.9 6.7 0 9.7 0.3"
       id="path75" />
    <path
       d="m331.5 368.3c1.7-2.5 4.8-3.6 7.8-3.9"
       id="path77" />
    <path
       d="m311.2 384.1c1.7-3 5.6-3.5 9.3-3.5"
       id="path79" />
    <path
       d="m365.4 372.2h-6.9"
       id="path81" />
    <path
       d="m367 375.9c-3-0.1-6.2-0.3-8.8-0.7"
       id="path83" />
    <path
       d="m389.4 482.6c-10.2 6.2-25.8 9.7-29-8.4-1.5-8.3 4.3-18.9 11.9-22.3"
       id="path85" />
  </g>
  <use
     xlink:href="#q"
     transform="matrix(-1,0,0,1,765,0)"
     id="use87" />
  <rect
     opacity=".8"
     transform="scale(-1,1)"
     height="28.37"
     width="209.5"
     y="287.8"
     x="-239.6"
     fill="url(#j)"
     id="rect89" />
  <rect
     opacity=".8"
     height="28.37"
     width="209.5"
     y="288.1"
     x="525.4"
     fill="url(#j)"
     id="rect91" />
  <g
     stroke="#999"
     stroke-width=".64"
     id="g93">
    <circle
       id="n"
       transform="matrix(3.123,0,0,3.123,-850.4,-1064)"
       cy="397.6"
       cx="351.6"
       r="25.22"
       fill="url(#f)" />
    <circle
       id="m"
       transform="matrix(3.083 0 0 3.083 -804.7 -1060)"
       cy="482.1"
       cx="341.5"
       r="17.03"
       fill="url(#b)" />
    <circle
       id="l"
       transform="matrix(3.173 0 0 3.173 -1285 -1075)"
       cy="434"
       cx="415.7"
       r="8.671"
       fill="url(#e)" />
    <circle
       id="k"
       transform="matrix(3.797 0 0 3.797 -1235 -1346)"
       cy="434"
       cx="370.6"
       r="12.45"
       fill="url(#d)" />
    <circle
       id="h"
       transform="matrix(3.168,0,0,3.168,-766.3,-1087)"
       cy="438.5"
       cx="333.4"
       r="22.54"
       fill="url(#c)" />
    <use
       x="268.7"
       xlink:href="#m"
       id="use100" />
    <use
       x="270.1"
       xlink:href="#n"
       id="use102" />
    <use
       x="696.8"
       xlink:href="#l"
       id="use104" />
    <use
       x="420.5"
       xlink:href="#k"
       id="use106" />
    <use
       x="185"
       xlink:href="#h"
       id="use108" />
  </g>
  <g
     font-size="36px"
     stroke-width="1pt"
     stroke-opacity=".5"
     font-family="Arial, sans-serif"
     stroke="#fff"
     font-weight="bold"
     line-height="125%"
     id="g110">
    <text
       y="317.32672"
       x="270.37701"
       font-size="42px"
       id="text112">R</text>
    <text
       y="317.55899"
       x="152.02513"
       font-size="39px"
       fill="#fff"
       id="text114">C</text>
    <text
       y="191.696"
       x="187.6691"
       id="text116">COOH</text>
    <text
       y="443.90894"
       x="208.16588"
       fill="#fff"
       id="text118">
      <tspan
         id="tspan120">NH</tspan>
      <tspan
         font-size="27px"
         dx="-1"
         dy="9"
         id="tspan122">2</tspan>
    </text>
    <text
       y="314.72113"
       x="21.2"
       font-size="33px"
       id="text124">H</text>
    <text
       y="317.32672"
       x="461.44086"
       font-size="42px"
       id="text126">R</text>
    <text
       y="317.55899"
       x="584.96222"
       font-size="39px"
       fill="#fff"
       id="text128">C</text>
    <text
       y="191.696"
       x="470.40283"
       id="text130">COOH</text>
    <text
       y="443.90894"
       x="491.47238"
       fill="#fff"
       id="text132">
      <tspan
         id="tspan134">NH</tspan>
      <tspan
         font-size="27px"
         dx="-1"
         dy="9"
         id="tspan136">2</tspan>
    </text>
    <text
       y="314.72113"
       x="720"
       font-size="33px"
       id="text138">H</text>
  </g>
  <g
     id="a"
     opacity=".8"
     transform="matrix(-.3805 .6638 -.6273 -.3595 729.1 268.6)"
     clip-path="url(#i)">
    <path
       d="m174.1 168.3 116.6-31.3-114.8 38.6s-1.8-7.3-1.8-7.3"
       fill="#ddd"
       id="path141" />
    <path
       d="m174.2 162.1s116.5-25.1 116.5-25.1l-115 32.4-1.5-7.3"
       fill="#c8c8c8"
       id="path143" />
    <path
       d="m174.3 156 116.4-19.1-115.3 26.4-1.1-7.3"
       fill="#b4b4b4"
       id="path145" />
    <path
       d="m174.4 149.9 116.3-13-115.5 20.2-0.8-7.2"
       fill="#a0a0a0"
       id="path147" />
    <path
       d="m174.6 143.7 116.1-6.8-115.8 14.1s-0.3-7.3-0.3-7.3"
       fill="#8c8c8c"
       id="path149" />
    <path
       d="m174.7 137.6 116.1-0.7-116.1 8v-7.3"
       fill="#787878"
       id="path151" />
    <path
       d="m174.8 131.5 116 5.4-116.4 1.8 0.4-7.2"
       fill="#646464"
       id="path153" />
    <path
       d="m175 125.3 115.8 11.6-116.7-4.3 0.9-7.3"
       fill="#505050"
       id="path155" />
    <path
       d="m175.1 119.2 115.7 17.7-116.9-10.5 1.2-7.2"
       fill="#3c3c3c"
       id="path157" />
    <path
       d="m175.2 113.1 115.6 23.8-117.2-16.6 1.6-7.2"
       fill="#282828"
       id="path159" />
    <path
       d="m175.3 106.9 115.5 30-117.4-22.8s1.9-7.2 1.9-7.2"
       fill="#141414"
       id="path161" />
  </g>
  <use
     xlink:href="#a"
     transform="matrix(.4642 .8857 .8857 -.4642 -370.3 -83.2)"
     id="use163" />
  <use
     xlink:href="#a"
     transform="matrix(.2434 .7564 -.4629 .4634 239.1 -288.6)"
     id="use165" />
  <use
     xlink:href="#a"
     transform="matrix(-.2454 .7557 .4617 .4646 527.4 -289)"
     id="use167" />
  <use
     xlink:href="#a"
     transform="matrix(.9999 .01341 .01341 -.9999 -4.108 595.9)"
     id="use169" />
  <use
     xlink:href="#a"
     transform="matrix(-1 .001827 .001827 1 764.6 -1.24)"
     id="use171" />
</svg>
