<?xml version="1.0" encoding="UTF-8" standalone="no"?>
<!-- Created with Inkscape (http://www.inkscape.org/) -->

<svg
   xmlns:dc="http://purl.org/dc/elements/1.1/"
   xmlns:cc="http://creativecommons.org/ns#"
   xmlns:rdf="http://www.w3.org/1999/02/22-rdf-syntax-ns#"
   xmlns:svg="http://www.w3.org/2000/svg"
   xmlns="http://www.w3.org/2000/svg"
   xmlns:sodipodi="http://sodipodi.sourceforge.net/DTD/sodipodi-0.dtd"
   xmlns:inkscape="http://www.inkscape.org/namespaces/inkscape"
   width="207.44337mm"
   height="53.504726mm"
   viewBox="0 0 735.03558 189.58368"
   id="svg4303"
   version="1.1"
   inkscape:version="0.91 r13725"
   sodipodi:docname="truefalsechir.svg">
  <defs
     id="defs4305">
    <clipPath
       id="clipPath4889"
       clipPathUnits="userSpaceOnUse">
      <path
         inkscape:connector-curvature="0"
         id="path4891"
         d="m 181.537,366.592 221.432,0 0,316.734 -221.432,0 0,-316.734 z" />
    </clipPath>
    <clipPath
       id="clipPath4961"
       clipPathUnits="userSpaceOnUse">
      <path
         inkscape:connector-curvature="0"
         id="path4963"
         d="m 181.537,366.592 221.432,0 0,316.734 -221.432,0 0,-316.734 z" />
    </clipPath>
    <clipPath
       id="clipPath4973"
       clipPathUnits="userSpaceOnUse">
      <path
         inkscape:connector-curvature="0"
         id="path4975"
         d="m 181.537,366.592 221.432,0 0,316.734 -221.432,0 0,-316.734 z" />
    </clipPath>
    <clipPath
       clipPathUnits="userSpaceOnUse"
       id="clipPath10469">
      <rect
         style="color:#000000;clip-rule:nonzero;display:inline;overflow:visible;visibility:visible;opacity:0.8;isolation:auto;mix-blend-mode:normal;color-interpolation:sRGB;color-interpolation-filters:linearRGB;solid-color:#000000;solid-opacity:1;fill:#ffdf00;fill-opacity:1;fill-rule:evenodd;stroke:#ffdf00;stroke-width:1.99999988;stroke-linecap:butt;stroke-linejoin:miter;stroke-miterlimit:10;stroke-dasharray:3.99999979, 1.9999999;stroke-dashoffset:0;stroke-opacity:1;color-rendering:auto;image-rendering:auto;shape-rendering:auto;text-rendering:auto;enable-background:accumulate"
         id="rect10471"
         width="193.94926"
         height="183.84775"
         x="289.77954"
         y="87.515556" />
    </clipPath>
    <clipPath
       clipPathUnits="userSpaceOnUse"
       id="clipPath10739">
      <rect
         style="color:#000000;clip-rule:nonzero;display:inline;overflow:visible;visibility:visible;opacity:0.8;isolation:auto;mix-blend-mode:normal;color-interpolation:sRGB;color-interpolation-filters:linearRGB;solid-color:#000000;solid-opacity:1;fill:#ffdf00;fill-opacity:1;fill-rule:evenodd;stroke:#ffdf00;stroke-width:1.99999988;stroke-linecap:butt;stroke-linejoin:miter;stroke-miterlimit:10;stroke-dasharray:3.99999979, 1.9999999;stroke-dashoffset:0;stroke-opacity:1;color-rendering:auto;image-rendering:auto;shape-rendering:auto;text-rendering:auto;enable-background:accumulate"
         id="rect10741"
         width="285.87314"
         height="184.85789"
         x="297.02032"
         y="301.47876" />
    </clipPath>
  </defs>
  <sodipodi:namedview
     id="base"
     pagecolor="#ffffff"
     bordercolor="#666666"
     borderopacity="1.0"
     inkscape:pageopacity="0.0"
     inkscape:pageshadow="2"
     inkscape:zoom="1.4"
     inkscape:cx="487.60876"
     inkscape:cy="137.17478"
     inkscape:document-units="px"
     inkscape:current-layer="layer1"
     showgrid="false"
     inkscape:window-width="1536"
     inkscape:window-height="803"
     inkscape:window-x="-8"
     inkscape:window-y="-8"
     inkscape:window-maximized="1"
     fit-margin-top="0"
     fit-margin-left="0"
     fit-margin-right="0"
     fit-margin-bottom="0" />
  <metadata
     id="metadata4308">
    <rdf:RDF>
      <cc:Work
         rdf:about="">
        <dc:format>image/svg+xml</dc:format>
        <dc:type
           rdf:resource="http://purl.org/dc/dcmitype/StillImage" />
        <dc:title></dc:title>
      </cc:Work>
    </rdf:RDF>
  </metadata>
  <g
     inkscape:label="Calque 1"
     inkscape:groupmode="layer"
     id="layer1"
     transform="translate(-1.5315175,5.4857802)">
    <g
       id="g10525"
       clip-path="url(#clipPath10739)"
       transform="translate(-3.0101525,-306.96454)">
      <g
         id="g10473">
        <path
           d="m 380.75218,157.78229 23.62375,-10.5 m -23.185,48.99625 22.74875,11.375 m 45.53,-42.895 0.80625,25.42125 m 2.53,-3.38375 -2.47125,4.08875 -2.72625,-3.9225 m 4.5275,-18.98625 -2.725,-3.9225 -2.47,4.0875 m -111.3475,254.7475 c -7.54625,0 -13.6625,-2.28625 -13.6625,-5.10875 0,-2.42125 4.50125,-4.44875 10.545,-4.975"
           style="fill:none;stroke:#231f20;stroke-width:0.625;stroke-linecap:butt;stroke-linejoin:miter;stroke-miterlimit:2.41400003;stroke-dasharray:none;stroke-opacity:1"
           id="path4903"
           inkscape:connector-curvature="0" />
        <path
           d="m 334.73593,424.76979 3.25125,-1.8775 -3.25125,-1.875 0,3.7525"
           style="fill:#231f20;fill-opacity:1;fill-rule:nonzero;stroke:none"
           id="path4905"
           inkscape:connector-curvature="0" />
        <path
           d="m 450.20968,315.71604 c -7.545,0 -13.6625,-2.2875 -13.6625,-5.10875 0,-2.42 4.50375,-4.4475 10.545,-4.975"
           style="fill:none;stroke:#231f20;stroke-width:0.625;stroke-linecap:butt;stroke-linejoin:miter;stroke-miterlimit:2.41400003;stroke-dasharray:none;stroke-opacity:1"
           id="path4907"
           inkscape:connector-curvature="0" />
        <path
           d="m 449.35343,317.59604 3.24875,-1.87625 -3.24875,-1.875 0,3.75125"
           style="fill:#231f20;fill-opacity:1;fill-rule:nonzero;stroke:none"
           id="path4909"
           inkscape:connector-curvature="0" />
        <path
           d="m 450.21093,482.38354 c 7.54375,0 13.66125,-2.2875 13.66125,-5.10875 0,-2.41875 -4.5025,-4.44625 -10.54625,-4.975"
           style="fill:none;stroke:#231f20;stroke-width:0.625;stroke-linecap:butt;stroke-linejoin:miter;stroke-miterlimit:2.41400003;stroke-dasharray:none;stroke-opacity:1"
           id="path4911"
           inkscape:connector-curvature="0" />
        <path
           d="m 451.06843,480.50229 -3.25125,1.87625 3.25125,1.87625 0,-3.7525"
           style="fill:#231f20;fill-opacity:1;fill-rule:nonzero;stroke:none"
           id="path4913"
           inkscape:connector-curvature="0" />
        <path
           d="m 380.75218,374.76604 23.62375,-10.5 m -23.185,48.99625 22.74875,11.37625"
           style="fill:none;stroke:#231f20;stroke-width:0.625;stroke-linecap:butt;stroke-linejoin:miter;stroke-miterlimit:2.41400003;stroke-dasharray:none;stroke-opacity:1"
           id="path4915"
           inkscape:connector-curvature="0" />
        <text
           style="font-style:italic;font-variant:normal;font-size:11.25px;font-family:'Times New Roman';-inkscape-font-specification:TimesNewRomanPS-Italic;writing-mode:lr-tb;fill:#231f20;fill-opacity:1;fill-rule:nonzero;stroke:none"
           id="text4925"
           x="501.49344"
           y="462.2598">
          <tspan
             x="501.49344"
             y="462.2598"
             id="tspan4927">R</tspan>
        </text>
        <text
           style="font-variant:normal;font-weight:normal;font-size:8.75px;font-family:Symbol;-inkscape-font-specification:Symbol;writing-mode:lr-tb;fill:#231f20;fill-opacity:1;fill-rule:nonzero;stroke:none"
           id="text4929"
           x="508.36719"
           y="464.7598">
          <tspan
             x="508.36719"
             y="464.7598"
             id="tspan4931">π</tspan>
        </text>
        <path
           d="m 349.25468,404.30729 c 0,2.8125 -6.1375,5.1075 -13.66125,5.1075 -7.525,0 -13.6625,-2.295 -13.6625,-5.1075 m 0,0 13.45625,-39.50875 13.8675,39.50875"
           style="fill:#e7e7e8;fill-opacity:1;fill-rule:evenodd;stroke:none"
           id="path4933"
           inkscape:connector-curvature="0" />
        <path
           d="m 349.25468,404.30729 c 0,2.8125 -6.1375,5.1075 -13.66125,5.1075 -7.525,0 -13.6625,-2.295 -13.6625,-5.1075 m 0,0 13.45625,-39.50875 13.8675,39.50875 m -13.99,-1.94625 0,-13.12375"
           style="fill:none;stroke:#231f20;stroke-width:0.625;stroke-linecap:butt;stroke-linejoin:miter;stroke-miterlimit:2.41400003;stroke-dasharray:none;stroke-opacity:1"
           id="path4935"
           inkscape:connector-curvature="0" />
        <path
           d="m 335.26468,386.62729 -1.755,3.50875 3.51,0 -1.755,-3.50875"
           style="fill:#231f20;fill-opacity:1;fill-rule:evenodd;stroke:none"
           id="path4937"
           inkscape:connector-curvature="0" />
        <path
           d="m 436.54718,324.75729 13.45625,39.50875 13.86875,-39.50875"
           style="fill:#e7e7e8;fill-opacity:1;fill-rule:evenodd;stroke:none"
           id="path4939"
           inkscape:connector-curvature="0" />
        <path
           d="m 436.54718,324.75729 13.45625,39.50875 13.86875,-39.50875"
           style="fill:none;stroke:#231f20;stroke-width:0.625;stroke-linecap:butt;stroke-linejoin:miter;stroke-miterlimit:2.41400003;stroke-dasharray:none;stroke-opacity:1"
           id="path4941"
           inkscape:connector-curvature="0" />
        <path
           d="m 450.20968,329.86604 c 7.545,0 13.6625,-2.2875 13.6625,-5.10875 0,-2.82125 -6.1175,-5.10875 -13.6625,-5.10875 -7.545,0 -13.6625,2.2875 -13.6625,5.10875 0,2.82125 6.1175,5.10875 13.6625,5.10875"
           style="fill:#e7e7e8;fill-opacity:1;fill-rule:evenodd;stroke:none"
           id="path4943"
           inkscape:connector-curvature="0" />
        <path
           d="m 450.20968,329.86604 c 7.545,0 13.6625,-2.2875 13.6625,-5.10875 0,-2.82125 -6.1175,-5.10875 -13.6625,-5.10875 -7.545,0 -13.6625,2.2875 -13.6625,5.10875 0,2.82125 6.1175,5.10875 13.6625,5.10875 z m -0.33625,18.6525 0,-13.12375"
           style="fill:none;stroke:#231f20;stroke-width:0.625;stroke-linecap:butt;stroke-linejoin:miter;stroke-miterlimit:2.41400003;stroke-dasharray:none;stroke-opacity:1"
           id="path4945"
           inkscape:connector-curvature="0" />
        <path
           d="m 449.87218,351.12729 -1.75375,-3.51125 3.50875,0 -1.755,3.51125"
           style="fill:#231f20;fill-opacity:1;fill-rule:nonzero;stroke:none"
           id="path4947"
           inkscape:connector-curvature="0" />
        <path
           d="m 463.87218,463.80354 c 0,2.81375 -6.1375,5.10875 -13.66125,5.10875 -7.525,0 -13.66375,-2.295 -13.66375,-5.10875 m 0,0 13.45625,-39.50875 13.86875,39.50875"
           style="fill:#e7e7e8;fill-opacity:1;fill-rule:evenodd;stroke:none"
           id="path4949"
           inkscape:connector-curvature="0" />
        <path
           d="m 463.87218,463.80354 c 0,2.81375 -6.1375,5.10875 -13.66125,5.10875 -7.525,0 -13.66375,-2.295 -13.66375,-5.10875 m 0,0 13.45625,-39.50875 13.86875,39.50875 m -13.99875,-2.41875 0,-13.125"
           style="fill:none;stroke:#231f20;stroke-width:0.625;stroke-linecap:butt;stroke-linejoin:miter;stroke-miterlimit:2.41400003;stroke-dasharray:none;stroke-opacity:1"
           id="path4951"
           inkscape:connector-curvature="0" />
        <path
           d="m 449.87218,463.99354 -1.75375,-3.5075 3.50875,0 -1.755,3.5075"
           style="fill:#231f20;fill-opacity:1;fill-rule:evenodd;stroke:none"
           id="path4953"
           inkscape:connector-curvature="0" />
        <path
           d="m 550.29093,429.74979 13.455,39.50875 13.8675,-39.50875"
           style="fill:#e7e7e8;fill-opacity:1;fill-rule:evenodd;stroke:none"
           id="path4955"
           inkscape:connector-curvature="0" />
        <g
           id="g4957"
           transform="matrix(1.25,0,0,-1.25,74.203428,942.49479)">
          <g
             id="g4959"
             clip-path="url(#clipPath4961)">
            <path
               d="m 380.87,410.196 10.764,-31.607 11.094,31.607"
               style="fill:none;stroke:#231f20;stroke-width:0.5;stroke-linecap:butt;stroke-linejoin:miter;stroke-miterlimit:2.41400003;stroke-dasharray:none;stroke-opacity:1"
               id="path4965"
               inkscape:connector-curvature="0" />
          </g>
        </g>
        <path
           d="m 563.95093,434.85979 c 7.54625,0 13.6625,-2.2875 13.6625,-5.11 0,-2.82 -6.11625,-5.1075 -13.6625,-5.1075 -7.545,0 -13.66,2.2875 -13.66,5.1075 0,2.8225 6.115,5.11 13.66,5.11"
           style="fill:#e7e7e8;fill-opacity:1;fill-rule:evenodd;stroke:none"
           id="path4967"
           inkscape:connector-curvature="0" />
        <g
           id="g4969"
           transform="matrix(1.25,0,0,-1.25,74.203428,942.49479)">
          <g
             id="g4971"
             clip-path="url(#clipPath4973)">
            <path
               d="m 391.798,406.108 c 6.037,0 10.93,1.83 10.93,4.088 0,2.256 -4.893,4.086 -10.93,4.086 -6.036,0 -10.928,-1.83 -10.928,-4.086 0,-2.258 4.892,-4.088 10.928,-4.088 z m 0,11.322 c -6.036,0 -10.928,1.829 -10.928,4.086 0,1.936 3.601,3.559 8.436,3.981"
               style="fill:none;stroke:#231f20;stroke-width:0.5;stroke-linecap:butt;stroke-linejoin:miter;stroke-miterlimit:2.41400003;stroke-dasharray:none;stroke-opacity:1"
               id="path4977"
               inkscape:connector-curvature="0" />
          </g>
        </g>
        <path
           d="m 563.09593,422.58854 3.24875,-1.8775 -3.24875,-1.875 0,3.7525"
           style="fill:#231f20;fill-opacity:1;fill-rule:nonzero;stroke:none"
           id="path4979"
           inkscape:connector-curvature="0" />
        <path
           d="m 563.61593,453.50979 0,-13.12125"
           style="fill:none;stroke:#231f20;stroke-width:0.625;stroke-linecap:butt;stroke-linejoin:miter;stroke-miterlimit:2.41400003;stroke-dasharray:none;stroke-opacity:1"
           id="path4981"
           inkscape:connector-curvature="0" />
        <path
           d="m 563.61468,437.77729 -1.755,3.51125 3.51,0 -1.755,-3.51125"
           style="fill:#231f20;fill-opacity:1;fill-rule:nonzero;stroke:none"
           id="path4983"
           inkscape:connector-curvature="0" />
        <path
           d="m 494.02718,445.19979 26.3075,-0.004 m -3.4375,-2.5975 4.0075,2.5975 -4.0075,2.6 m -19.42875,-5.195 -4.00875,2.5975 4.00875,2.6"
           style="fill:none;stroke:#231f20;stroke-width:0.625;stroke-linecap:butt;stroke-linejoin:miter;stroke-miterlimit:2.41400003;stroke-dasharray:none;stroke-opacity:1"
           id="path4985"
           inkscape:connector-curvature="0" />
        <text
           style="font-variant:normal;font-weight:normal;font-size:12.09375px;font-family:'Times New Roman';-inkscape-font-specification:TimesNewRomanPS;writing-mode:lr-tb;fill:#231f20;fill-opacity:1;fill-rule:nonzero;stroke:none"
           id="text4995"
           x="311.19879"
           y="126.57729">
          <tspan
             x="311.19879"
             y="126.57729"
             id="tspan4997">)</tspan>
          <tspan
             x="301.12469"
             y="345.90591"
             id="tspan4999">(</tspan>
        </text>
        <text
           style="font-style:italic;font-variant:normal;font-size:12.09375px;font-family:'Times New Roman';-inkscape-font-specification:TimesNewRomanPS-Italic;writing-mode:lr-tb;fill:#231f20;fill-opacity:1;fill-rule:nonzero;stroke:none"
           id="text5001"
           x="305.15189"
           y="345.90591">
          <tspan
             x="305.15189"
             y="345.90591"
             id="tspan5003">b</tspan>
        </text>
        <text
           style="font-variant:normal;font-weight:normal;font-size:12.09375px;font-family:'Times New Roman';-inkscape-font-specification:TimesNewRomanPS;writing-mode:lr-tb;fill:#231f20;fill-opacity:1;fill-rule:nonzero;stroke:none"
           id="text5005"
           x="311.19879"
           y="345.90591">
          <tspan
             x="311.19879"
             y="345.90591"
             id="tspan5007">)</tspan>
        </text>
        <text
           style="font-style:italic;font-variant:normal;font-size:12.09375px;font-family:'Times New Roman';-inkscape-font-specification:TimesNewRomanPS-Italic;writing-mode:lr-tb;fill:#231f20;fill-opacity:1;fill-rule:nonzero;stroke:none"
           id="text5009"
           x="388.07874"
           y="384.14999">
          <tspan
             x="388.07874"
             y="384.14999"
             id="tspan5011">P</tspan>
          <tspan
             x="387.76309"
             y="435.60889"
             id="tspan5013">T</tspan>
          <tspan
             x="388.07874"
             y="167.61865"
             id="tspan5015">P</tspan>
        </text>
        <path
           d="m 398.95968,146.26229 5.875,0.76625 -3.09875,5.0525 m -2.84,211.35875 5.875,0.76625 -3.09875,5.0525 m -14.46125,-210.885 -5.86875,-0.815 3.13875,-5.02625 m 1.4225,223.48125 -5.86875,-0.81375 3.13875,-5.0275 m 0.75125,-168.8975 -3.09,-5.055 5.8775,-0.75875 m 14.8875,7.55375 2.94625,5.13875 -5.895,0.59375 m 2.3425,210.7525 2.94625,5.13875 -5.895,0.59375 m -13.38,-6.815 -3.09,-5.05375 5.8775,-0.76"
           style="fill:none;stroke:#231f20;stroke-width:1.25999999;stroke-linecap:butt;stroke-linejoin:miter;stroke-miterlimit:2.61299992;stroke-dasharray:none;stroke-opacity:1"
           id="path5017"
           inkscape:connector-curvature="0" />
        <text
           y="126.57729"
           x="311.19879"
           id="text10334"
           style="font-variant:normal;font-weight:normal;font-size:12.09375px;font-family:'Times New Roman';-inkscape-font-specification:TimesNewRomanPS;writing-mode:lr-tb;fill:#231f20;fill-opacity:1;fill-rule:nonzero;stroke:none">
          <tspan
             id="tspan10336"
             y="126.57729"
             x="311.19879">)</tspan>
          <tspan
             id="tspan10338"
             y="345.90591"
             x="301.12469">(</tspan>
        </text>
        <path
           inkscape:connector-curvature="0"
           id="path10372"
           style="fill:none;stroke:#231f20;stroke-width:0.625;stroke-linecap:butt;stroke-linejoin:miter;stroke-miterlimit:2.41400003;stroke-dasharray:none;stroke-opacity:1"
           d="m 380.75218,157.78229 23.62375,-10.5 m -23.185,48.99625 22.74875,11.375 m 45.53,-42.895 0.80625,25.42125 m 2.53,-3.38375 -2.47125,4.08875 -2.72625,-3.9225 m 4.5275,-18.98625 -2.725,-3.9225 -2.47,4.0875 m -111.3475,254.7475 c -7.54625,0 -13.6625,-2.28625 -13.6625,-5.10875 0,-2.42125 4.50125,-4.44875 10.545,-4.975" />
      </g>
    </g>
    <g
       id="g10416"
       transform="translate(-300.08921,-87.265409)"
       clip-path="url(#clipPath10469)">
      <g
         id="g10376">
        <g
           id="g10340">
          <g
             transform="matrix(1.0000022,0,0,1,-3.9110466e-4,0)"
             id="g10208">
            <path
               d="m 349.25468,187.32229 c 0,2.81375 -6.1375,5.10875 -13.66125,5.10875 -7.525,0 -13.6625,-2.295 -13.6625,-5.10875 m 0,0 13.45625,-39.50875 13.8675,39.50875"
               style="fill:#e7e7e8;fill-opacity:1;fill-rule:evenodd;stroke:none"
               id="path4873"
               inkscape:connector-curvature="0" />
            <path
               d="m 349.25468,187.32229 c 0,2.81375 -6.1375,5.10875 -13.66125,5.10875 -7.525,0 -13.6625,-2.295 -13.6625,-5.10875 m 0,0 13.45625,-39.50875 13.8675,39.50875 m -13.66125,18.58125 c -7.54625,0 -13.6625,-2.28625 -13.6625,-5.1075 0,-2.42125 4.50125,-4.4475 10.545,-4.975"
               style="fill:none;stroke:#231f20;stroke-width:0.625;stroke-linecap:butt;stroke-linejoin:miter;stroke-miterlimit:2.41400003;stroke-dasharray:none;stroke-opacity:1"
               id="path4875"
               inkscape:connector-curvature="0" />
            <path
               d="m 334.73593,207.78479 3.25125,-1.8775 -3.25125,-1.87625 0,3.75375"
               style="fill:#231f20;fill-opacity:1;fill-rule:nonzero;stroke:none"
               id="path4877"
               inkscape:connector-curvature="0" />
            <path
               d="m 436.51093,108.78604 13.45625,39.51 13.8675,-39.51"
               style="fill:#e7e7e8;fill-opacity:1;fill-rule:evenodd;stroke:none"
               id="path4879"
               inkscape:connector-curvature="0" />
            <path
               d="m 436.51093,108.78604 13.45625,39.51 13.8675,-39.51"
               style="fill:none;stroke:#231f20;stroke-width:0.625;stroke-linecap:butt;stroke-linejoin:miter;stroke-miterlimit:2.41400003;stroke-dasharray:none;stroke-opacity:1"
               id="path4881"
               inkscape:connector-curvature="0" />
            <path
               d="m 450.20968,112.88104 c 7.545,0 13.6625,-2.28625 13.6625,-5.1075 0,-2.82125 -6.1175,-5.10875 -13.6625,-5.10875 -7.545,0 -13.6625,2.2875 -13.6625,5.10875 0,2.82125 6.1175,5.1075 13.6625,5.1075"
               style="fill:#e7e7e8;fill-opacity:1;fill-rule:evenodd;stroke:none"
               id="path4883"
               inkscape:connector-curvature="0" />
            <g
               id="g4885"
               transform="matrix(1.25,0,0,-1.25,74.203428,942.49479)">
              <g
                 id="g4887"
                 clip-path="url(#clipPath4889)">
                <path
                   d="m 300.805,663.691 c 6.036,0 10.93,1.829 10.93,4.086 0,2.257 -4.894,4.087 -10.93,4.087 -6.036,0 -10.93,-1.83 -10.93,-4.087 0,-2.257 4.894,-4.086 10.93,-4.086 z m 0,11.32 c -6.036,0 -10.93,1.83 -10.93,4.087 0,1.936 3.603,3.558 8.436,3.98"
                   style="fill:none;stroke:#231f20;stroke-width:0.5;stroke-linecap:butt;stroke-linejoin:miter;stroke-miterlimit:2.41400003;stroke-dasharray:none;stroke-opacity:1"
                   id="path4893"
                   inkscape:connector-curvature="0" />
              </g>
            </g>
            <path
               d="m 449.35343,100.61104 3.24875,-1.87625 -3.24875,-1.87625 0,3.7525"
               style="fill:#231f20;fill-opacity:1;fill-rule:nonzero;stroke:none"
               id="path4895"
               inkscape:connector-curvature="0" />
            <path
               d="m 463.87218,246.81854 c 0,2.81375 -6.1375,5.10875 -13.66125,5.10875 -7.525,0 -13.66375,-2.295 -13.66375,-5.10875 m 0,0 13.45625,-39.50875 13.86875,39.50875"
               style="fill:#e7e7e8;fill-opacity:1;fill-rule:evenodd;stroke:none"
               id="path4897"
               inkscape:connector-curvature="0" />
            <path
               d="m 463.87218,246.81854 c 0,2.81375 -6.1375,5.10875 -13.66125,5.10875 -7.525,0 -13.66375,-2.295 -13.66375,-5.10875 m 0,0 13.45625,-39.50875 13.86875,39.50875 m -13.66125,18.58 c 7.54375,0 13.66125,-2.28625 13.66125,-5.1075 0,-2.42125 -4.5025,-4.44875 -10.54625,-4.975"
               style="fill:none;stroke:#231f20;stroke-width:0.625;stroke-linecap:butt;stroke-linejoin:miter;stroke-miterlimit:2.41400003;stroke-dasharray:none;stroke-opacity:1"
               id="path4899"
               inkscape:connector-curvature="0" />
            <path
               d="m 451.06843,263.51854 -3.25125,1.87625 3.25125,1.87625 0,-3.7525"
               style="fill:#231f20;fill-opacity:1;fill-rule:nonzero;stroke:none"
               id="path4901"
               inkscape:connector-curvature="0" />
            <text
               style="font-style:italic;font-variant:normal;font-size:11.25px;font-family:'Times New Roman';-inkscape-font-specification:TimesNewRomanPS-Italic;writing-mode:lr-tb;fill:#231f20;fill-opacity:1;fill-rule:nonzero;stroke:none"
               id="text4917"
               x="459.49844"
               y="181.40604">
              <tspan
                 x="459.49844"
                 y="181.40604"
                 id="tspan4919">R</tspan>
            </text>
            <text
               style="font-variant:normal;font-weight:normal;font-size:8.75px;font-family:Symbol;-inkscape-font-specification:Symbol;writing-mode:lr-tb;fill:#231f20;fill-opacity:1;fill-rule:nonzero;stroke:none"
               id="text4921"
               x="466.37219"
               y="183.90604">
              <tspan
                 x="466.37219"
                 y="183.90604"
                 id="tspan4923">π</tspan>
            </text>
            <text
               style="font-variant:normal;font-weight:normal;font-size:12.09375px;font-family:'Times New Roman';-inkscape-font-specification:TimesNewRomanPS;writing-mode:lr-tb;fill:#231f20;fill-opacity:1;fill-rule:nonzero;stroke:none"
               id="text4987"
               x="301.12469"
               y="126.57729">
              <tspan
                 x="301.12469"
                 y="126.57729"
                 id="tspan4989">(</tspan>
            </text>
            <text
               style="font-style:italic;font-variant:normal;font-size:12.09375px;font-family:'Times New Roman';-inkscape-font-specification:TimesNewRomanPS-Italic;writing-mode:lr-tb;fill:#231f20;fill-opacity:1;fill-rule:nonzero;stroke:none"
               id="text4991"
               x="305.15189"
               y="126.57729">
              <tspan
                 x="305.15189"
                 y="126.57729"
                 id="tspan4993">a</tspan>
            </text>
            <text
               style="font-style:italic;font-variant:normal;font-size:12.09375px;font-family:'Times New Roman';-inkscape-font-specification:TimesNewRomanPS-Italic;writing-mode:lr-tb;fill:#231f20;fill-opacity:1;fill-rule:nonzero;stroke:none"
               id="text5019"
               x="387.76343"
               y="219.07729">
              <tspan
                 x="387.76343"
                 y="219.07729"
                 id="tspan5021">T</tspan>
            </text>
            <path
               inkscape:connector-curvature="0"
               id="path10204"
               style="fill:none;stroke:#231f20;stroke-width:1.25999999;stroke-linecap:butt;stroke-linejoin:miter;stroke-miterlimit:2.61299992;stroke-dasharray:none;stroke-opacity:1"
               d="m 398.95968,146.26229 5.875,0.76625 -3.09875,5.0525 m -2.84,211.35875 5.875,0.76625 -3.09875,5.0525 m -14.46125,-210.885 -5.86875,-0.815 3.13875,-5.02625 m 1.4225,223.48125 -5.86875,-0.81375 3.13875,-5.0275 m 0.75125,-168.8975 -3.09,-5.055 5.8775,-0.75875 m 14.8875,7.55375 2.94625,5.13875 -5.895,0.59375 m 2.3425,210.7525 2.94625,5.13875 -5.895,0.59375 m -13.38,-6.815 -3.09,-5.05375 5.8775,-0.76" />
          </g>
          <text
             style="font-style:italic;font-variant:normal;font-size:12.09375px;font-family:'Times New Roman';-inkscape-font-specification:TimesNewRomanPS-Italic;writing-mode:lr-tb;fill:#231f20;fill-opacity:1;fill-rule:nonzero;stroke:none"
             id="text10324"
             x="388.07874"
             y="384.14999">
            <tspan
               x="388.07874"
               y="384.14999"
               id="tspan10326">P</tspan>
            <tspan
               x="387.76309"
               y="435.60889"
               id="tspan10328">T</tspan>
            <tspan
               x="388.07874"
               y="167.61865"
               id="tspan10330">P</tspan>
          </text>
          <path
             d="m 398.95968,146.26229 5.875,0.76625 -3.09875,5.0525 m -2.84,211.35875 5.875,0.76625 -3.09875,5.0525 m -14.46125,-210.885 -5.86875,-0.815 3.13875,-5.02625 m 1.4225,223.48125 -5.86875,-0.81375 3.13875,-5.0275 m 0.75125,-168.8975 -3.09,-5.055 5.8775,-0.75875 m 14.8875,7.55375 2.94625,5.13875 -5.895,0.59375 m 2.3425,210.7525 2.94625,5.13875 -5.895,0.59375 m -13.38,-6.815 -3.09,-5.05375 5.8775,-0.76"
             style="fill:none;stroke:#231f20;stroke-width:1.25999999;stroke-linecap:butt;stroke-linejoin:miter;stroke-miterlimit:2.61299992;stroke-dasharray:none;stroke-opacity:1"
             id="path10332"
             inkscape:connector-curvature="0" />
        </g>
        <path
           d="m 380.75218,157.78229 23.62375,-10.5 m -23.185,48.99625 22.74875,11.375 m 45.53,-42.895 0.80625,25.42125 m 2.53,-3.38375 -2.47125,4.08875 -2.72625,-3.9225 m 4.5275,-18.98625 -2.725,-3.9225 -2.47,4.0875 m -111.3475,254.7475 c -7.54625,0 -13.6625,-2.28625 -13.6625,-5.10875 0,-2.42125 4.50125,-4.44875 10.545,-4.975"
           style="fill:none;stroke:#231f20;stroke-width:0.625;stroke-linecap:butt;stroke-linejoin:miter;stroke-miterlimit:2.41400003;stroke-dasharray:none;stroke-opacity:1"
           id="path10374"
           inkscape:connector-curvature="0" />
      </g>
      <text
         y="126.57729"
         x="311.19879"
         id="text10410"
         style="font-variant:normal;font-weight:normal;font-size:12.09375px;font-family:'Times New Roman';-inkscape-font-specification:TimesNewRomanPS;writing-mode:lr-tb;fill:#231f20;fill-opacity:1;fill-rule:nonzero;stroke:none">
        <tspan
           id="tspan10412"
           y="126.57729"
           x="311.19879">)</tspan>
        <tspan
           id="tspan10414"
           y="345.90591"
           x="301.12469">(</tspan>
      </text>
    </g>
    <rect
       style="color:#000000;clip-rule:nonzero;display:inline;overflow:visible;visibility:visible;opacity:1;isolation:auto;mix-blend-mode:normal;color-interpolation:sRGB;color-interpolation-filters:linearRGB;solid-color:#000000;solid-opacity:1;fill:#ffffff;fill-opacity:1;fill-rule:evenodd;stroke:none;stroke-width:2;stroke-linecap:butt;stroke-linejoin:miter;stroke-miterlimit:10;stroke-dasharray:4, 2;stroke-dashoffset:0;stroke-opacity:1;color-rendering:auto;image-rendering:auto;shape-rendering:auto;text-rendering:auto;enable-background:accumulate"
       id="rect10783"
       width="5.7142859"
       height="6.0714288"
       x="166.33937"
       y="90.989647" />
    <text
       xml:space="preserve"
       style="font-style:normal;font-weight:normal;font-size:9.79145432px;line-height:125%;font-family:sans-serif;letter-spacing:0px;word-spacing:0px;fill:#000000;fill-opacity:1;stroke:none;stroke-width:1px;stroke-linecap:butt;stroke-linejoin:miter;stroke-opacity:1"
       x="167.16257"
       y="95.990311"
       id="text10779"
       sodipodi:linespacing="125%"><tspan
         sodipodi:role="line"
         id="tspan10781"
         x="167.16257"
         y="95.990311"
         style="font-style:normal;font-variant:normal;font-weight:normal;font-stretch:normal;font-family:'Times New Roman';-inkscape-font-specification:'Times New Roman, '">π</tspan></text>
    <rect
       style="color:#000000;clip-rule:nonzero;display:inline;overflow:visible;visibility:visible;opacity:1;isolation:auto;mix-blend-mode:normal;color-interpolation:sRGB;color-interpolation-filters:linearRGB;solid-color:#000000;solid-opacity:1;fill:#ffffff;fill-opacity:1;fill-rule:evenodd;stroke:none;stroke-width:2;stroke-linecap:butt;stroke-linejoin:miter;stroke-miterlimit:10;stroke-dasharray:4, 2;stroke-dashoffset:0;stroke-opacity:1;color-rendering:auto;image-rendering:auto;shape-rendering:auto;text-rendering:auto;enable-background:accumulate"
       id="rect10783-9"
       width="4.9107146"
       height="6.0714288"
       x="505.28317"
       y="152.15114" />
    <text
       xml:space="preserve"
       style="font-style:normal;font-weight:normal;font-size:9.79145432px;line-height:125%;font-family:sans-serif;letter-spacing:0px;word-spacing:0px;fill:#000000;fill-opacity:1;stroke:none;stroke-width:1px;stroke-linecap:butt;stroke-linejoin:miter;stroke-opacity:1"
       x="505.30283"
       y="157.15181"
       id="text10779-0"
       sodipodi:linespacing="125%"><tspan
         sodipodi:role="line"
         id="tspan10781-7"
         x="505.30283"
         y="157.15181"
         style="font-style:normal;font-variant:normal;font-weight:normal;font-stretch:normal;font-family:'Times New Roman';-inkscape-font-specification:'Times New Roman, '">π</tspan></text>
    <g
       id="g17925"
       transform="matrix(0,-1,1,0,631.31944,797.23972)">
      <path
         inkscape:connector-curvature="0"
         id="path10842"
         style="fill:none;stroke:#000000;stroke-width:0.625;stroke-linecap:butt;stroke-linejoin:miter;stroke-miterlimit:2.61299992;stroke-dasharray:none;stroke-opacity:1"
         d="m 720.97458,75.406387 c -1.14375,-8.58375 -4.25875,-14.42125 -7.66125,-14.42125 -4.4825,0 -8.14,9.87125 -8.14,21.975 0,12.1025 3.6575,21.975003 8.14,21.975003 3.94125,0 7.34375,-7.726253 8.01125,-18.198753" />
      <path
         inkscape:connector-curvature="0"
         id="path10844"
         style="fill:#000000;fill-opacity:1;fill-rule:evenodd;stroke:none"
         d="m 721.40083,78.600137 -2.05,-3.02125 3.2375,-0.43125 -1.1875,3.4525" />
      <path
         inkscape:connector-curvature="0"
         id="path10846"
         style="fill:none;stroke:#000000;stroke-width:0.625;stroke-linecap:butt;stroke-linejoin:miter;stroke-miterlimit:2.61299992;stroke-dasharray:none;stroke-opacity:1"
         d="m 702.21833,81.982637 c -0.57875,0.6575 -1.28,1.01625 -1.95,1.01625 -0.66875,0 -1.36875,-0.35875 -1.94875,-1.01625 m -3.8975,0 c 0.57875,-0.6575 1.27875,-1.01625 1.94875,-1.01625 0.66875,0 1.37,0.35875 1.95,1.01625 m -3.89875,-10e-4 c -0.57875,0.65875 -1.28,1.0175 -1.95,1.0175 -0.67,0 -1.37125,-0.35875 -1.95,-1.0175 m 19.49375,0 c -0.46875,0.53375 -1.015,0.87 -1.56375,0.97875 m 1.56375,-0.97875 c 0.57875,-0.65625 1.28,-1.015 1.95,-1.015 0.67,0 1.37,0.35875 1.94875,1.015 m 3.89875,0 c -0.5775,0.65875 -1.27875,1.0175 -1.94875,1.0175 -0.67,0 -1.37125,-0.35875 -1.95,-1.0175 m 3.89875,0 c 0.57875,-0.6575 1.28,-1.01625 1.95,-1.01625 0.67,0 1.37125,0.35875 1.95,1.01625 m 3.89875,0 c -0.57875,0.65875 -1.28,1.0175 -1.95,1.0175 -0.67,0 -1.37,-0.35875 -1.94875,-1.0175 m 3.89875,0 c 0.57875,-0.6575 1.27875,-1.01625 1.94875,-1.01625 0.67,0 1.37,0.35875 1.95,1.01625 m 0,0 5.61375,0.0588" />
      <path
         inkscape:connector-curvature="0"
         id="path10848"
         style="fill:#000000;fill-opacity:1;fill-rule:evenodd;stroke:none"
         d="m 734.88833,82.037637 -2.65625,-1.9175 2.9125,0.0312 2.8925,1.9175 -2.9325,1.86 -2.9125,-0.0312 2.69625,-1.86" />
    </g>
    <text
       style="font-variant:normal;font-weight:normal;font-size:11.7703743px;font-family:'Times New Roman';-inkscape-font-specification:TimesNewRomanPS;writing-mode:lr-tb;fill:#000000;fill-opacity:1;fill-rule:nonzero;stroke:none"
       id="text10878"
       x="727.63959"
       y="68.960114">
      <tspan
         x="727.63959"
         y="68.960114"
         id="tspan10880">L</tspan>
    </text>
    <text
       style="font-variant:normal;font-weight:normal;font-size:11.24987507px;font-family:'Times New Roman';-inkscape-font-specification:TimesNewRomanPS;writing-mode:lr-tb;fill:#000000;fill-opacity:1;fill-rule:nonzero;stroke:none"
       id="text10882"
       x="852.41144"
       y="126.12316">
      <tspan
         x="852.41144"
         y="126.12316"
         id="tspan10884" />
      <tspan
         x="666.69623 676.06738"
         y="39.644279"
         sodipodi:role="line"
         id="tspan10888">()</tspan>
    </text>
    <text
       style="font-style:italic;font-variant:normal;font-size:11.25px;font-family:'Times New Roman';-inkscape-font-specification:TimesNewRomanPS-Italic;writing-mode:lr-tb;fill:#000000;fill-opacity:1;fill-rule:nonzero;stroke:none"
       id="text10890"
       x="670.44238"
       y="39.644157">
      <tspan
         x="670.44238"
         y="39.644157"
         id="tspan10892">c</tspan>
    </text>
    <text
       xml:space="preserve"
       style="font-style:normal;font-weight:normal;font-size:15px;line-height:125%;font-family:sans-serif;letter-spacing:0px;word-spacing:0px;fill:#000000;fill-opacity:1;stroke:none;stroke-width:1px;stroke-linecap:butt;stroke-linejoin:miter;stroke-opacity:1"
       x="20.110235"
       y="39.367451"
       id="text17897"
       sodipodi:linespacing="125%"><tspan
         sodipodi:role="line"
         id="tspan17899"
         x="20.110235"
         y="39.367451"
         style="font-style:italic;font-variant:normal;font-weight:normal;font-stretch:normal;font-size:12.5px;font-family:'Times New Roman';-inkscape-font-specification:'Times New Roman, Italic'">Fausse chiralité</tspan></text>
    <text
       xml:space="preserve"
       style="font-style:normal;font-weight:normal;font-size:15px;line-height:125%;font-family:sans-serif;letter-spacing:0px;word-spacing:0px;fill:#000000;fill-opacity:1;stroke:none;stroke-width:1px;stroke-linecap:butt;stroke-linejoin:miter;stroke-opacity:1"
       x="317.80072"
       y="39.367451"
       id="text17897-0"
       sodipodi:linespacing="125%"><tspan
         sodipodi:role="line"
         id="tspan17899-7"
         x="317.80072"
         y="39.367451"
         style="font-style:italic;font-variant:normal;font-weight:normal;font-stretch:normal;font-size:12.5px;font-family:'Times New Roman';-inkscape-font-specification:'Times New Roman, Italic'">Vraie chiralité</tspan></text>
  </g>
</svg>
