<?xml version="1.0" encoding="UTF-8" standalone="no"?>
<!-- Created with Inkscape (http://www.inkscape.org/) -->

<svg
   xmlns:dc="http://purl.org/dc/elements/1.1/"
   xmlns:cc="http://creativecommons.org/ns#"
   xmlns:rdf="http://www.w3.org/1999/02/22-rdf-syntax-ns#"
   xmlns:svg="http://www.w3.org/2000/svg"
   xmlns="http://www.w3.org/2000/svg"
   xmlns:sodipodi="http://sodipodi.sourceforge.net/DTD/sodipodi-0.dtd"
   xmlns:inkscape="http://www.inkscape.org/namespaces/inkscape"
   width="97.297287mm"
   height="84.1866mm"
   viewBox="0 0 344.75417 298.29897"
   id="svg4147"
   version="1.1"
   inkscape:version="0.91 r13725"
   sodipodi:docname="SPP.svg">
  <defs
     id="defs4149">
    <marker
       inkscape:stockid="Arrow1Mstart"
       orient="auto"
       refY="0"
       refX="0"
       id="Arrow1Mstart"
       style="overflow:visible"
       inkscape:isstock="true">
      <path
         id="path4720"
         d="M 0,0 5,-5 -12.5,0 5,5 0,0 Z"
         style="fill:#000000;fill-opacity:1;fill-rule:evenodd;stroke:#000000;stroke-width:1pt;stroke-opacity:1"
         transform="matrix(0.4,0,0,0.4,4,0)"
         inkscape:connector-curvature="0" />
    </marker>
    <marker
       inkscape:stockid="Arrow1Mend"
       orient="auto"
       refY="0"
       refX="0"
       id="Arrow1Mend"
       style="overflow:visible"
       inkscape:isstock="true">
      <path
         id="path4723"
         d="M 0,0 5,-5 -12.5,0 5,5 0,0 Z"
         style="fill:#000000;fill-opacity:1;fill-rule:evenodd;stroke:#000000;stroke-width:1pt;stroke-opacity:1"
         transform="matrix(-0.4,0,0,-0.4,-4,0)"
         inkscape:connector-curvature="0" />
    </marker>
    <marker
       inkscape:stockid="Arrow1Send"
       orient="auto"
       refY="0"
       refX="0"
       id="Arrow1Send"
       style="overflow:visible"
       inkscape:isstock="true">
      <path
         id="path4729"
         d="M 0,0 5,-5 -12.5,0 5,5 0,0 Z"
         style="fill:#000000;fill-opacity:1;fill-rule:evenodd;stroke:#000000;stroke-width:1pt;stroke-opacity:1"
         transform="matrix(-0.2,0,0,-0.2,-1.2,0)"
         inkscape:connector-curvature="0" />
    </marker>
    <marker
       inkscape:stockid="Arrow2Mend"
       orient="auto"
       refY="0"
       refX="0"
       id="Arrow2Mend"
       style="overflow:visible"
       inkscape:isstock="true">
      <path
         id="path4741"
         style="fill:#d40000;fill-opacity:1;fill-rule:evenodd;stroke:#d40000;stroke-width:0.625;stroke-linejoin:round;stroke-opacity:1"
         d="M 8.7185878,4.0337352 -2.2072895,0.01601326 8.7185884,-4.0017078 c -1.7454984,2.3720609 -1.7354408,5.6174519 -6e-7,8.035443 z"
         transform="scale(-0.6,-0.6)"
         inkscape:connector-curvature="0" />
    </marker>
    <marker
       inkscape:stockid="Arrow2Lend"
       orient="auto"
       refY="0"
       refX="0"
       id="Arrow2Lend"
       style="overflow:visible"
       inkscape:isstock="true">
      <path
         id="path4735"
         style="fill:#ff0000;fill-opacity:1;fill-rule:evenodd;stroke:#ff0000;stroke-width:0.625;stroke-linejoin:round;stroke-opacity:1"
         d="M 8.7185878,4.0337352 -2.2072895,0.01601326 8.7185884,-4.0017078 c -1.7454984,2.3720609 -1.7354408,5.6174519 -6e-7,8.035443 z"
         transform="matrix(-1.1,0,0,-1.1,-1.1,0)"
         inkscape:connector-curvature="0" />
    </marker>
    <marker
       inkscape:stockid="Arrow1Lend"
       orient="auto"
       refY="0"
       refX="0"
       id="Arrow1Lend"
       style="overflow:visible"
       inkscape:isstock="true">
      <path
         id="path4717"
         d="M 0,0 5,-5 -12.5,0 5,5 0,0 Z"
         style="fill:#ff0000;fill-opacity:1;fill-rule:evenodd;stroke:#ff0000;stroke-width:1pt;stroke-opacity:1"
         transform="matrix(-0.8,0,0,-0.8,-10,0)"
         inkscape:connector-curvature="0" />
    </marker>
    <marker
       inkscape:stockid="Arrow1Mend"
       orient="auto"
       refY="0"
       refX="0"
       id="Arrow1Mend-8"
       style="overflow:visible"
       inkscape:isstock="true">
      <path
         inkscape:connector-curvature="0"
         id="path4723-6"
         d="M 0,0 5,-5 -12.5,0 5,5 0,0 Z"
         style="fill:#000000;fill-opacity:1;fill-rule:evenodd;stroke:#000000;stroke-width:1pt;stroke-opacity:1"
         transform="matrix(-0.4,0,0,-0.4,-4,0)" />
    </marker>
  </defs>
  <sodipodi:namedview
     id="base"
     pagecolor="#ffffff"
     bordercolor="#666666"
     borderopacity="1.0"
     inkscape:pageopacity="0.0"
     inkscape:pageshadow="2"
     inkscape:zoom="0.98994949"
     inkscape:cx="192.43892"
     inkscape:cy="146.20563"
     inkscape:document-units="px"
     inkscape:current-layer="layer1"
     showgrid="false"
     inkscape:window-width="1536"
     inkscape:window-height="803"
     inkscape:window-x="-8"
     inkscape:window-y="-8"
     inkscape:window-maximized="1"
     fit-margin-top="0"
     fit-margin-left="0"
     fit-margin-right="0"
     fit-margin-bottom="0" />
  <metadata
     id="metadata4152">
    <rdf:RDF>
      <cc:Work
         rdf:about="">
        <dc:format>image/svg+xml</dc:format>
        <dc:type
           rdf:resource="http://purl.org/dc/dcmitype/StillImage" />
        <dc:title></dc:title>
      </cc:Work>
    </rdf:RDF>
  </metadata>
  <g
     inkscape:label="Calque 1"
     inkscape:groupmode="layer"
     id="layer1"
     transform="translate(-72.127257,-146.98972)">
    <path
       style="fill:#16502d;fill-opacity:1;fill-rule:evenodd;stroke:#000000;stroke-width:1px;stroke-linecap:butt;stroke-linejoin:miter;stroke-opacity:1"
       d="m 139.64286,357.00506 17.67857,11.96429 17.5,6.42857 27.14286,6.60714 36.78571,5.71429 40.71429,3.75 23.57142,-3.92858 53.57143,-12.32142 28.21429,-11.96429 21.25,-15.71429 7.85714,-10.17857 0,27.85715 -15.71428,14.46428 L 370,393.6122 l -39.28571,8.39286 -32.32143,3.75 -34.64286,1.42857 -40,-4.64286 -24.64286,-5 -18.75,-6.42857 -13.57143,-6.42857 -9.10714,-6.25 -8.92857,-7.85714 z"
       id="path6286"
       inkscape:connector-curvature="0" />
    <path
       style="fill:#16502d;fill-rule:evenodd;stroke:#0055d4;stroke-width:1px;stroke-linecap:butt;stroke-linejoin:miter;stroke-opacity:1"
       d="M 153.75,270.21935 272.67857,296.1122 272.5,329.32649 260.53571,336.1122 155.71429,317.89792 Z"
       id="path6284"
       inkscape:connector-curvature="0" />
    <path
       style="fill:#5fd38d;fill-rule:evenodd;stroke:none;stroke-width:1px;stroke-linecap:butt;stroke-linejoin:miter;stroke-opacity:1"
       d="m 154.3008,269.99906 118.31412,25.88516 0.42079,32.54941 -12.41071,7.41072 -17.85714,-2.14286 -30.04465,-5.9375 -56.78091,-10.28776 -11.23795,9.72272 -6.18718,8.08122 -2.14658,7.19733 0.12627,5.55584 3.53554,7.57615 2.52538,6.81853 7.70241,1.76776 6.81853,4.67196 8.20749,2.77792 7.70241,3.15672 11.99557,3.03046 30.55711,6.43972 50.00255,6.18719 22.98097,-0.88389 42.30014,-6.69226 40.91118,-13.25825 22.47589,-11.86929 12.50064,-10.73287 6.9448,-10.98541 1.13642,-16.41498 -4.41942,-13.51079 -6.43972,-9.34391 -15.9099,-14.26841 -12.12183,-7.3236 -17.29887,-7.44988 -20.07678,-6.94479 -31.8198,-6.06092 -17.80394,-1.6415 -24.11739,-0.75761 -20.45559,-0.25254 -30.55712,2.52538 -17.67767,2.14657 -17.9302,3.53554 -17.67767,5.42957 z"
       id="path6282"
       inkscape:connector-curvature="0" />
    <path
       style="fill:#000000;stroke:none"
       d="m 282.01851,427.39899 0,-18.3722 -17.25,-0.73145 c -15.77401,-0.66886 -36.00494,-2.86643 -51.2419,-5.56611 -7.17088,-1.27053 -23.3066,-5.65891 -25.74453,-7.00165 -0.95504,-0.52601 -2.23225,-0.95638 -2.83826,-0.95638 -0.606,0 -4.0185,-1.35 -7.58334,-3 -3.56483,-1.65 -6.68614,-3 -6.93625,-3 -1.19543,0 -14.49322,-8.84829 -19.10685,-12.71362 -9.81858,-8.22604 -18.30764,-25.57642 -16.88051,-34.50122 0.79451,-4.96859 5.85488,-12.92167 11.95258,-18.78516 l 4.67974,-4.5 2.61431,-1.83678 c 0.0907,-0.0898 -0.22746,-8.93822 -0.70712,-19.66322 -1.39525,-31.19769 -1.51738,-29.54694 2.29213,-30.9796 1.7875,-0.67223 4.15,-1.58141 5.25,-2.0204 8.44723,-3.37112 21.39425,-6.74315 33,-8.59482 22.60723,-3.60692 56.49855,-5.90421 74.45645,-5.04696 21.83419,1.44404 12.8336,0.89491 21.83419,1.44404 3.19256,0.18524 5.20936,-0.10807 5.20936,-0.75762 0,-0.58293 1.34515,-9.8701 2.98922,-20.63815 l 3.38747,-24.49975 c 5.87662,-27.93825 2.34837,-27.00072 5.16803,-20.41793 -0.95509,1.1001 -8.72492,65.4106 -8.08412,66.44744 0.26704,0.43208 3.31015,1.06443 6.76247,1.40522 8.93011,0.88151 20.74917,3.14251 34.77693,6.65288 5.09696,1.27549 18.48036,5.60044 21.5,6.9479 1.1,0.49085 5.375,2.36238 9.5,4.15896 18.0591,7.86534 34.18927,21.58439 40.36974,34.33531 4.92799,10.16691 6.02717,16.04397 5.28113,28.23694 -0.81228,22.42488 -0.62356,16.1238 -0.81228,22.42488 l -0.33859,11.10687 -6.23096,5.85449 c -6.09661,5.72825 -13.33323,10.76269 -20.2914,14.11652 -9.26005,4.46332 -21.27841,8.98145 -28.47764,10.70575 -2.2,0.52692 -6.7,1.64275 -10,2.47962 -15.0053,3.8053 -33.94612,6.4675 -53.5,7.51963 l -12.30357,0.61878 -0.98636,18.75 c -0.82763,15.73276 0.38456,16.07143 -0.85714,16.07143 -1.25028,0 -0.85293,-0.15136 -0.85293,-15.69364 z m -3,-27.94348 0,-5.31569 -11.3616,-1.18431 c -6.24888,-0.65137 -13.11674,-1.18431 -15.26191,-1.18431 l -3.90032,0 0.51191,5.75 0.51192,5.75 7,0.57341 c 3.85,0.31538 10.4875,0.65288 14.75,0.75 l 7.75,0.17659 z m 27.39522,3.31692 c 7.09237,-0.55068 13.50487,-1.00123 14.25,-1.00123 1.02488,0 1.35478,-1.91536 1.35478,-7.86573 l 0,-7.86572 -4.25,0.88914 c -5.58496,1.16842 -21.99417,3.82663 -28,4.53585 l -4.75,0.56092 0,5.7061 c 0,3.13836 -1.81986,6.25231 -1.42509,6.64709 0.39478,0.39477 -2.60343,0.42569 6.39286,-0.0553 1.96332,-0.10497 9.33508,-1.00043 16.42745,-1.55112 z m -60.9478,-5.47136 c -0.0289,-3.0076 -0.33774,-5.75352 -0.68627,-6.10205 -0.34853,-0.34853 -5.94987,-1.26031 -12.44742,-2.02617 -6.49755,-0.76587 -13.05123,-1.672 -14.56373,-2.01364 l -2.75,-0.62116 0,6.09752 c 0,6.82243 -1.07546,5.99713 10.5,8.05762 7.41969,1.32074 10.86906,1.73623 16,1.92729 l 4,0.14895 -0.0526,-5.46836 z m 89.55258,1.80615 c 0.825,-0.27348 4.65,-1.10449 8.5,-1.84668 9.50064,-1.83151 14.73534,-3.18684 23,-5.95497 l 7,-2.34455 0.28673,-9.035 0.28674,-9.03499 -6.00686,2.35407 c -3.30377,1.29473 -7.46803,2.67499 -9.25391,3.06724 -1.78588,0.39224 -3.93682,1.05071 -4.77988,1.46326 -2.20632,1.07967 -7.50951,2.61736 -15.53282,4.50384 -3.85,0.90523 -8.4625,2.09609 -10.25,2.64637 l -3.25,1.00049 0,7.43427 0,7.43427 4.25,-0.5952 c 2.3375,-0.32735 4.925,-0.81894 5.75,-1.09242 z m -123,-7.20597 0,-5.86995 -4.25,-0.59761 c -2.3375,-0.32868 -6.05,-1.03256 -8.25,-1.56417 -6.53708,-1.57964 -12.84941,-3.0803 -15.25,-3.62546 -2.09271,-0.47524 -2.25,-0.17414 -2.25,4.3072 0,4.67575 0.11084,4.85561 3.75,6.08515 2.0625,0.69685 4.65,1.64884 5.75,2.11553 1.1,0.4667 4.025,1.36776 6.5,2.00236 2.475,0.6346 5.85,1.52695 7.5,1.983 6.27661,1.73481 6.5,1.56861 6.5,-4.83605 z m 67,-4.1939 c 0,-1.81735 -10.13035,-54.39983 -10.56402,-54.8335 -0.55466,-0.55466 -2.44053,4.14545 -7.38173,18.39735 -2.28825,6.6 -5.99259,17.08147 -8.23187,23.29215 -2.23927,6.21069 -3.90288,11.4496 -3.69689,11.64203 2.02963,1.89607 29.87451,3.296 29.87451,1.50197 z m -101.18513,-9.05742 c -0.72318,-0.45072 -4.77159,-1.96854 -8.99647,-3.37293 -4.22487,-1.40438 -8.94987,-3.21213 -10.5,-4.01721 -2.90685,-1.50971 -4.01273,-0.74038 -2.94298,2.04735 0.68445,1.78366 15.93695,11.74417 20.12458,13.14218 2.97391,0.99282 3.00274,0.96682 3.31487,-2.98918 0.19829,-2.51314 -0.17197,-4.29414 -1,-4.81021 z m 121.18513,7.09395 c 8.33448,-1.24523 15.71764,-2.66435 19.43184,-3.73499 l 2.93184,-0.84513 -11.07459,-11.44628 c -6.09103,-6.29545 -14.26244,-14.82128 -18.15868,-18.94628 l -7.08407,-7.5 -0.0232,22.26182 -0.0232,22.26182 3.75,-0.53991 c 2.0625,-0.29695 6.675,-0.97692 10.25,-1.51105 z m 91.53993,-4.39234 c 2.77196,-1.45547 7.49696,-4.57508 10.5,-6.93248 l 5.46007,-4.28616 0.33367,-8.81995 c 0.29872,-7.89602 0.15921,-8.75299 -1.33179,-8.18085 -0.916,0.35151 -1.9938,0.6391 -2.39511,0.6391 -0.4013,0 -1.63287,0.84148 -2.73681,1.86996 -1.10394,1.02847 -5.12629,3.81999 -8.93856,6.20337 -4.77433,3.55645 -8.39395,4.67012 -14.4314,6.92667 l 0,9.46446 0,9.46447 4.25,-1.85114 c 2.3375,-1.01813 6.51797,-3.04198 9.28993,-4.49745 z M 250.72308,373.7712 c 10.41979,-29.13591 13.2042,-37.42456 12.73099,-37.89777 -0.27568,-0.27568 -10.91846,9.93154 -23.65061,22.68272 -12.73216,12.75117 -22.89022,23.44311 -22.57347,23.75987 0.8423,0.84229 24.63212,4.35049 27.65563,4.07827 0.8055,-0.0725 3.20355,-5.25814 5.83746,-12.62309 z m 27.56451,-37.50955 c -3.77989,-4.28169 -6.12913,-5.96373 -7.04714,-5.04572 -0.4883,0.48829 8.34355,49.22484 9.61447,53.05527 0.36497,1.1 0.78468,-8.29152 0.93267,-20.87005 l 0.26908,-22.87005 z M 236.0671,359.2712 c 12.07379,-12.1 21.37189,-22.12725 20.66245,-22.28277 -1.22806,-0.26922 -2.9558,0.55429 -15.71104,7.4885 -3.025,1.6445 -9.1,4.91892 -13.5,7.27648 -8.66171,4.64103 -16.48997,8.89234 -29,15.7491 -4.4,2.41164 -9.2375,4.90734 -10.75,5.54598 -3.16393,1.33597 -3.50541,2.38234 -1,3.06422 11.51795,3.13478 22.86849,5.48482 25.54812,5.28953 0.98897,-0.0721 11.67668,-10.03104 23.75047,-22.13104 z m 94.55219,20.61666 c 1.59457,-0.48583 4.69922,-1.3644 6.89922,-1.95236 15.83521,-4.23204 25.36348,-7.14528 27,-8.25516 0.55,-0.37301 2.4625,-0.99091 4.25,-1.37312 2.99181,-0.63972 4.63322,-2.53602 2.19514,-2.53602 -0.58018,0 -2.94268,-0.85747 -5.25,-1.90549 -2.30733,-1.04802 -10.27014,-4.20543 -17.69514,-7.01646 -7.425,-2.81104 -14.4,-5.50769 -15.5,-5.99255 -1.1,-0.48487 -3.64301,-1.60246 -5.65113,-2.48354 l -15.84887,-6.05209 c -4.125,-1.54631 -8.85,-3.38203 -10.5,-4.07938 -5.53619,-2.33979 -15.01297,-5.61237 -15.4471,-5.1688 -0.23651,0.24166 0.4872,2.8964 0.29872,4.61718 -0.30965,2.82703 1.51116,4.27238 14.2825,17.70982 7.77377,8.17922 16.32377,17.20159 19,20.04971 4.98599,5.30623 6.84948,5.99737 11.96666,4.43826 z M 190.36324,369.3829 c 4.50128,-2.41356 10.20265,-5.50373 12.66971,-6.86703 2.46706,-1.3633 7.63556,-4.16788 11.48556,-6.23238 3.85,-2.06451 9.7,-5.21461 13,-7.00023 3.3,-1.78561 9.6,-5.16491 14,-7.50955 9.37525,-4.99582 11.1799,-6.37306 6.43255,-4.90909 -1.8879,0.58219 -5.00755,1.51148 -6.93255,2.0651 -1.925,0.55362 -8,2.48 -13.5,4.28083 -14.1654,4.6381 -24.82661,7.9857 -33.5,10.51893 -7.93792,2.31843 -12.22614,3.7199 -15.5,5.06572 -1.1,0.45218 -6.16152,2.09427 -11.24783,3.64908 -5.08631,1.5548 -9.24881,3.12952 -9.25,3.49937 -0.001,0.36984 1.68533,1.21644 3.74783,1.88131 2.0625,0.66488 4.2,1.48264 4.75,1.81726 2.48615,1.51254 10.26524,3.96325 12.83029,4.04204 1.57303,0.0483 6.46583,-1.86242 11.01444,-4.30136 z m -39.9887,-2.09331 c -2.58112,-1.88737 -3.05845,-0.95204 -0.79214,1.55221 1.14248,1.26242 2.03465,1.63377 2.26499,0.94275 0.20902,-0.62705 -0.45376,-1.74979 -1.47285,-2.49496 z m 261.64397,-13.13642 c 0,-5.775 -0.3599,-10.27758 -0.79977,-10.00572 -0.43987,0.27186 -0.9104,5.28766 -1.04562,11.14623 -0.1665,7.21356 0.0917,10.44335 0.79977,10.00572 0.62008,-0.38323 1.04562,-4.91949 1.04562,-11.14623 z m -225,-0.38248 c 4.125,-1.21783 12,-3.69218 17.5,-5.49854 5.5,-1.80636 14.725,-4.73105 20.5,-6.4993 16.35954,-5.00915 17.44929,-5.36918 18.28519,-6.04098 0.43186,-0.34708 -1.59314,-0.4737 -4.5,-0.28139 -2.90685,0.19232 -12.71019,0.80986 -21.78519,1.37233 -14.60406,0.90515 -39.21731,2.53233 -69.25,4.57809 -9.29888,0.63342 -9.75,0.77001 -9.75,2.95212 0,5.61046 5.14011,12.86447 12.34075,17.41596 l 3.9769,2.51377 12.59117,-4.14891 c 6.92515,-2.2819 15.96618,-5.14532 20.09118,-6.36315 z m 197.08677,7.45147 c 10.2415,-5.78884 23.26865,-16.43392 21.84488,-17.85045 -0.47187,-0.46947 -9.61807,-1.9183 -25.93165,-4.10776 -18.67549,-2.50646 -32.36371,-4.44261 -38.5,-5.44568 -3.3,-0.53944 -9.825,-1.4515 -14.5,-2.0268 -4.675,-0.57531 -10.975,-1.47269 -14,-1.99418 -3.025,-0.52149 -8.425,-1.39496 -12,-1.94104 -3.575,-0.54608 -8.1935,-1.22298 -10.25,-1.58428 -5.24641,-0.92171 -5.66122,-1.48972 -5.625,1.80611 0.0247,2.24767 2.83078,2.70633 6.125,4.07843 2.3375,0.97362 5.15,2.17669 6.25,2.67349 1.1,0.4968 9.2,3.62034 18,6.9412 8.8,3.32086 16.9,6.43351 18,6.917 5.44859,2.39487 10.14161,4.24941 23,9.0889 7.7,2.89803 14.4275,5.65726 14.95,6.13162 1.92514,1.74778 6.51977,0.77097 12.63677,-2.68656 z m 26.41323,-24.95096 c 1.48052,-2.96104 2,-6 2,-11.7 0,-4.235 -0.45,-8.08024 -1,-8.54498 -0.55,-0.46474 -9.1,-0.54975 -19,-0.1889 -9.9,0.36084 -35.10379,1.07917 -56,1.84439 -58.76588,2.15201 -48.30436,1.65186 -48.5,3.95517 -0.24554,2.89069 -6.8161,1.34105 20.5,5.224 4.9392,0.7021 11.25,1.48384 14,1.91657 2.75,0.43273 9.95,1.49547 16,2.36163 6.05,0.86617 14.15,2.05062 18,2.63212 6.6086,0.99816 16.61374,2.42158 38.5,5.47739 12.79445,1.78638 13.1525,1.71761 15.5,-2.97739 z m -244.60549,1.89264 c 0.76698,-0.24243 12.46698,-1.13957 26,-1.99365 32.99475,-2.08232 41.20093,-2.86233 38.10549,-3.62197 -1.375,-0.33743 -10.15,-2.00453 -19.5,-3.70466 -9.35,-1.70014 -19.25,-3.54484 -22,-4.09935 -2.75,-0.55451 -7.925,-1.48935 -11.5,-2.07743 -9.2534,-1.52216 -15.10443,-2.61299 -18.08545,-3.37174 -2.21278,-0.5632 -3.52698,0.25253 -9.11718,5.65905 -5.90561,5.71156 -10.78384,12.07642 -10.79363,14.08295 -0.004,0.75945 24.21337,-0.0269 26.89077,-0.8732 z M 285.6078,335.1313 c 0,-1.90507 -4.14332,-4.47965 -9.07912,-6.35623 -3.10774,-1.18156 0.15451,2.28903 4.73209,7.1975 3.13876,3.36565 4.34703,2.33838 4.34703,-0.84127 z m -19.99556,-3.59373 5.40627,-3.23363 0,-15.72623 0,-15.72623 -3.75,-0.9919 c -2.0625,-0.54554 -7.35,-1.7377 -11.75,-2.64925 -4.4,-0.91154 -9.35,-2.05243 -11,-2.53531 -1.65,-0.48288 -5.7,-1.32121 -9,-1.86295 -8.12399,-1.33367 -18.55305,-3.45187 -27,-5.48385 -3.85,-0.92615 -10.15,-2.36585 -14,-3.19934 -3.85,-0.83349 -8.35,-1.90979 -10,-2.39178 -1.65,-0.482 -5.7,-1.34943 -9,-1.92762 -3.3,-0.5782 -9.0375,-1.66854 -12.75,-2.42298 l -6.75,-1.37172 0.0342,3.62821 c 0.14604,15.48606 1.97967,40.51876 3.01484,41.15853 0.6577,0.40648 3.82867,1.03693 7.04661,1.40099 3.21794,0.36407 8.90034,1.32829 12.62756,2.14272 7.08697,1.54855 20.5597,3.94048 30.77677,5.46407 3.3,0.4921 9.375,1.61475 13.5,2.49478 9.75124,2.08033 23.0732,4.49098 30,5.42859 3.025,0.40947 5.87968,0.81065 6.34373,0.89151 0.46405,0.0809 3.27655,-1.30811 6.25,-3.08661 z m 19.13931,-6.30656 c -1.77246,-0.41216 -10.73304,-1.72812 -10.73304,-0.67496 0,1.29245 11.13797,5.49252 11.59018,4.3692 0.19937,-0.49527 -0.38274,-3.25031 -0.85714,-3.69424 z m 0.0221,-4.20981 c 0.13157,-0.92636 4.16033,-1.00446 -4.61281,-1.25 -4.79575,-0.13422 -7.47472,2.12781 -5.4024,2.40662 16.01647,2.15485 9.44214,2.87823 10.01521,-1.15662 z m 0.76876,-5.32536 c 0.58164,-2.92857 7.53518,-4.31163 -7.23564,-1.00648 -6.03371,0.98075 -5.30736,2.88623 1.061,3.08184 9.65072,0.29643 5.74678,0.58754 6.17464,-2.07536 z m 63.97608,-0.43137 c 24.2,-0.79824 47.9286,-1.75199 52.73022,-2.11944 l 8.73022,-0.6681 -3.21143,-6.02526 c -3.45242,-6.4774 -12.41767,-17.00329 -13.77026,-16.16734 -0.9448,0.58392 -2.84492,0.98705 -32.47875,6.89075 -4.4,0.87658 -10.025,2.06782 -12.5,2.6472 -5.13132,1.20122 -13.89467,3.04077 -25.5,5.3528 -4.4,0.87658 -10.025,2.04483 -12.5,2.59612 -2.475,0.55129 -8.02601,1.52983 -12.27778,2.45933 -16.17839,3.53684 -9.72222,1.95311 -9.72222,5.2479 l -0.37946,2.54456 8.62946,-0.63127 c 4.54057,-0.33215 28.05,-1.32901 52.25,-2.12725 z m -69.75,-3.12356 c 11.98123,-2.42453 6.28345,-0.23855 6.87166,-5.22801 l 0.64249,-3.21246 -5.88207,2.16838 c -6.71169,2.47422 -8.38208,3.57521 -8.38208,5.52482 0,1.44673 2.92973,1.77107 6.75,0.74727 z m 20.75,-4.47362 c 2.2,-0.49414 7.6,-1.61563 12,-2.49221 11.66323,-2.32356 20.38669,-4.15549 25.5,-5.355 4.30423,-1.00971 8.68691,-1.91192 26.5,-5.45521 4.4,-0.87523 9.8,-1.99647 12,-2.49164 2.2,-0.49518 6.44068,-1.39888 9.42373,-2.00824 2.98305,-0.60935 5.59646,-1.28065 5.80757,-1.49176 0.21112,-0.21112 -1.10456,-1.42376 -2.92372,-2.69476 -1.81917,-1.271 -3.53258,-2.61664 -3.80758,-2.99031 -1.26023,-1.71238 -18.61779,-9.91326 -20.91794,-9.88303 -1.42013,0.0187 -4.38206,0.90339 -6.58206,1.96607 -2.2,1.06268 -4.32416,1.94741 -4.72036,1.96607 -0.39621,0.0187 -3.09621,1.0887 -6,2.37787 -2.9038,1.28916 -6.85464,2.93628 -8.77964,3.66027 -1.925,0.72399 -3.9275,1.69422 -4.45,2.15607 -0.5225,0.46184 -1.6475,0.85499 -2.5,0.87365 -0.8525,0.0187 -3.35,0.90339 -5.55,1.96607 -2.2,1.06268 -4.3424,1.94741 -4.7609,1.96607 -0.41849,0.0187 -2.66849,0.9129 -5,1.98721 -2.3315,1.0743 -6.7401,2.83474 -9.7391,4.05828 -28.95016,11.81123 -15.81084,5.58355 -15.98635,12.36344 -0.0562,2.17969 -2.79475,2.57157 3.23635,1.14726 1.78273,-0.42101 5.05,-1.13204 7.25,-1.62617 z m -17.36305,-4.73867 c 12.18521,-5.346 4.66582,-2.29203 5.02643,-6.07343 0.43313,-4.54177 0.46895,-4.49277 -2.22912,-3.04881 l -7.93426,5.84423 c -4.25,3.10464 -2.00714,1.62264 -4.25,3.10464 -0.4125,0.009 -0.75,0.74722 -0.75,1.64097 0,1.9723 3.19864,1.50921 10.13695,-1.46758 z m -1.75926,-8.35156 c 3.91727,-2.85678 7.27179,-5.29375 7.45448,-5.4155 0.51084,-0.34043 5.23046,-31.66107 4.83109,-32.06043 -0.19327,-0.19328 -2.44658,4.10286 -5.00733,9.54697 l -11.2174,23.6231 c -2.43432,4.95 -4.42886,9.1125 -4.43229,9.25 -0.022,0.88341 2.09528,-0.36708 8.37145,-4.94414 z m 16.3348,2.0659 c 3.18313,-1.17053 7.63943,-2.95418 9.9029,-3.96367 2.26346,-1.00949 6.76346,-2.80866 10,-3.99816 3.23653,-1.1895 8.26045,-3.23085 11.16425,-4.53633 2.90379,-1.30548 5.52013,-2.3736 5.81407,-2.3736 0.29395,0 2.99395,-1.125 6,-2.5 3.00606,-1.375 5.70191,-2.5 5.99079,-2.5 0.28888,0 2.41304,-0.85211 4.72036,-1.89358 2.30733,-1.04147 5.05785,-2.05397 6.11227,-2.25 4.57479,-0.85051 2.34278,-2.80704 -6.10985,-5.35577 -4.844,-1.46062 -9.93228,-3.04266 -11.30728,-3.51564 -7.3279,-2.52069 -8.96612,-2.33849 -14.84552,1.65105 -3.10996,2.11032 -5.87948,4.09118 -6.15448,4.40193 -0.275,0.31074 -2.75,2.11682 -5.5,4.0135 -2.75,1.89668 -5.225,3.70067 -5.5,4.00886 -0.275,0.3082 -3.48277,2.67114 -7.12838,5.25099 -3.6456,2.57985 -7.07233,5.25269 -7.61494,5.93965 -0.95417,1.20798 -9.42525,13.62234 -1.69904,10.00155 0.18295,-0.0857 2.97172,-1.21025 6.15485,-2.38078 z m -27.10676,-6.62176 c -0.31354,-2.0625 -1.26594,-10.5 -2.11645,-18.75 -0.85051,-8.25 -1.74441,-15.5625 -1.98644,-16.25 -0.48153,-1.36776 -15.10726,-1.62206 -23.71788,-0.41239 l -4.71504,0.66239 7.94891,9.5 c 4.37189,5.225 11.44366,13.86603 15.71504,19.20229 4.27137,5.33626 8.14318,9.72376 8.60403,9.75 0.46084,0.0262 0.58136,-1.63979 0.26783,-3.70229 z m -12.43689,-7 c -4.3612,-5.3625 -8.93848,-10.875 -10.17174,-12.25 -1.23326,-1.375 -4.75937,-5.59513 -7.83581,-9.37807 l -5.59352,-6.87807 -10.03388,0.64846 c -9.03786,0.58409 -20.83033,1.99143 -27.52216,3.28456 -2.5835,0.49923 -0.39429,1.64529 46.98827,24.59865 17.34371,8.40175 19.75289,9.49277 21.29914,9.64552 0.43953,0.0434 -2.7691,-4.30855 -7.1303,-9.67105 z m 20.7287,-0.8257 5.62795,-12.9243 3.43605,-6.71788 c 1.88983,-3.69483 3.22419,-6.92973 2.96525,-7.18868 -0.64849,-0.64848 -20.87945,-0.9741 -21.50739,-0.34616 l 4.11408,37.75272 c 0.14388,0 2.55772,-4.75906 5.36407,-10.5757 z m -28.00645,7.13346 c -0.509,-0.509 -18.8842,-9.67032 -43.19556,-21.536 l -16.80446,-8.20178 -5.19554,1.01579 c -2.85754,0.55869 -6.77053,1.46796 -8.69553,2.02062 -15.35012,4.40694 -19.57241,5.90454 -18.8065,6.67044 0.25898,0.25898 2.45889,0.87483 4.88869,1.36856 2.42979,0.49372 8.01781,1.66263 12.41781,2.59757 4.4,0.93494 10.925,2.30798 14.5,3.05121 3.575,0.74322 8.3,1.77731 10.5,2.29796 2.2,0.52066 7.6,1.70966 12,2.64222 4.4,0.93256 9.575,2.0646 11.5,2.51565 1.925,0.45105 6.875,1.53785 11,2.41512 4.125,0.87727 9.075,1.99669 11,2.4876 4.21369,1.07456 5.48024,1.24418 4.89109,0.65504 z m 44.27558,-4.35585 c 0.37709,-0.28998 7.40928,-5.9255 16.05766,-12.19233 8.64838,-6.26684 15.53167,-11.58691 15.29619,-11.82239 -0.23548,-0.23548 -2.58642,-0.84251 -5.22433,-1.34896 -10.9826,-2.10853 -20.89565,-3.80256 -22.35263,-3.8198 -1.24404,-0.0147 -1.90942,2.64112 -3.31497,13.23157 -0.96719,7.2875 -1.98461,14.0375 -2.26094,15 -0.48764,1.6985 -2.37471,4.16145 1.79902,0.95191 z"
       id="path4706"
       inkscape:connector-curvature="0"
       sodipodi:nodetypes="scsssssssssccssssccscccsssssscccssssscsssccsscccssccssscsscscsscssscssscccssscccssssscccssscsssssssssssssssssssssscscsscccsccsscscssccccsssssccssssscsssssssscsssssssssccscssssssssssssssscsscsssssssscsssssssssscsssssssssssssssssssssssssssssssssssssscsssssccccssssssssscsssssssccccsccssssccscsscsssssssscsscccsscssssssssscscssscscsscsscscccsccssccccssssssssssssscscsssssscscsscsssscssscsccscccccsscsssssssssssssssscsss" />
    <path
       style="fill:none;fill-rule:evenodd;stroke:#d40000;stroke-width:4;stroke-linecap:butt;stroke-linejoin:miter;stroke-miterlimit:4;stroke-dasharray:none;stroke-opacity:1;marker-end:url(#Arrow2Mend)"
       d="m 282.5428,445.26052 1.51523,-107.58124 24.11739,-169.45309"
       id="path4708"
       inkscape:connector-curvature="0"
       sodipodi:nodetypes="ccc" />
    <path
       style="fill:none;fill-rule:evenodd;stroke:#000000;stroke-width:1.5;stroke-linecap:butt;stroke-linejoin:miter;stroke-miterlimit:4;stroke-dasharray:none;stroke-opacity:1"
       d="m 283.58041,235.20403 c 0,0 2.42927,-5.49336 7.5803,-5.53825 5.15103,-0.0449 7.07524,4.06635 7.07524,4.06635"
       id="path6276"
       inkscape:connector-curvature="0"
       sodipodi:nodetypes="czc" />
    <path
       style="fill:none;fill-rule:evenodd;stroke:#000000;stroke-width:1;stroke-linecap:butt;stroke-linejoin:miter;stroke-miterlimit:4;stroke-dasharray:4, 4;stroke-dashoffset:0;stroke-opacity:1"
       d="m 272.5,295.93363 0,-133.21428"
       id="path5192"
       inkscape:connector-curvature="0" />
    <path
       inkscape:connector-curvature="0"
       id="path5200"
       d="m 284.2,338.8622 0,-162.14285"
       style="fill:none;fill-rule:evenodd;stroke:#000000;stroke-width:1;stroke-linecap:butt;stroke-linejoin:miter;stroke-miterlimit:4;stroke-dasharray:4, 4;stroke-dashoffset:0;stroke-opacity:1"
       sodipodi:nodetypes="cc" />
    <path
       style="fill:none;fill-rule:evenodd;stroke:#000000;stroke-width:1.5;stroke-linecap:butt;stroke-linejoin:miter;stroke-miterlimit:4;stroke-dasharray:none;stroke-opacity:1;marker-end:url(#Arrow1Mend)"
       d="m 272.99373,161.42797 11.11168,12.12183"
       id="path5202"
       inkscape:connector-curvature="0" />
    <text
       xml:space="preserve"
       style="font-style:normal;font-weight:normal;font-size:40px;line-height:125%;font-family:sans-serif;text-align:center;letter-spacing:0px;word-spacing:0px;text-anchor:middle;fill:#000000;fill-opacity:1;stroke:none;stroke-width:1px;stroke-linecap:butt;stroke-linejoin:miter;stroke-opacity:1"
       x="278.07797"
       y="157.89792"
       id="text5358"
       sodipodi:linespacing="125%"><tspan
         sodipodi:role="line"
         id="tspan5360"
         x="278.07797"
         y="157.89792"
         style="font-size:20px">r</tspan></text>
    <path
       style="fill:none;fill-rule:evenodd;stroke:#000000;stroke-width:1;stroke-linecap:butt;stroke-linejoin:miter;stroke-miterlimit:4;stroke-dasharray:4, 4;stroke-dashoffset:0;stroke-opacity:1"
       d="M 213.39473,282.81558 74.246212,252.13178"
       id="path5192-3"
       inkscape:connector-curvature="0"
       sodipodi:nodetypes="cc" />
    <path
       sodipodi:nodetypes="cc"
       inkscape:connector-curvature="0"
       id="path5395"
       d="M 213.39473,328.81558 72.225907,300.40462"
       style="fill:none;fill-rule:evenodd;stroke:#000000;stroke-width:1;stroke-linecap:butt;stroke-linejoin:miter;stroke-miterlimit:4;stroke-dasharray:4, 4;stroke-dashoffset:0;stroke-opacity:1" />
    <path
       style="fill:none;fill-rule:evenodd;stroke:#000000;stroke-width:1.5;stroke-linecap:butt;stroke-linejoin:miter;stroke-miterlimit:4;stroke-dasharray:none;stroke-opacity:1;marker-start:url(#Arrow1Mstart);marker-end:url(#Arrow1Mend-8)"
       d="m 76.689366,255.82695 2e-6,41.66879"
       id="path5202-4"
       inkscape:connector-curvature="0"
       sodipodi:nodetypes="cc" />
    <text
       xml:space="preserve"
       style="font-style:normal;font-weight:normal;font-size:40px;line-height:125%;font-family:sans-serif;letter-spacing:0px;word-spacing:0px;fill:#000000;fill-opacity:1;stroke:none;stroke-width:1px;stroke-linecap:butt;stroke-linejoin:miter;stroke-opacity:1"
       x="95.412643"
       y="290.15842"
       id="text6248"
       sodipodi:linespacing="125%"><tspan
         sodipodi:role="line"
         id="tspan6250"
         x="95.412643"
         y="290.15842"
         style="font-size:25px;text-align:center;text-anchor:middle">h</tspan></text>
    <text
       xml:space="preserve"
       style="font-style:normal;font-weight:normal;font-size:40px;line-height:125%;font-family:sans-serif;letter-spacing:0px;word-spacing:0px;fill:#000000;fill-opacity:1;stroke:none;stroke-width:1px;stroke-linecap:butt;stroke-linejoin:miter;stroke-opacity:1"
       x="290.99915"
       y="224.2372"
       id="text6278"
       sodipodi:linespacing="125%"><tspan
         sodipodi:role="line"
         id="tspan6280"
         x="290.99915"
         y="224.2372"
         style="font-size:20px;text-align:center;text-anchor:middle">$\theta$</tspan></text>
  </g>
</svg>
